<?xml version="1.0" standalone="no"?>
<!DOCTYPE svg PUBLIC "-//W3C//DTD SVG 1.1//EN" "http://www.w3.org/Graphics/SVG/1.1/DTD/svg11.dtd" >
<svg xmlns="http://www.w3.org/2000/svg" xmlns:xlink="http://www.w3.org/1999/xlink" version="1.1">
<metadata></metadata>
<defs>
<font id="dancing_scriptregular" horiz-adv-x="1212" >
<font-face units-per-em="2048" ascent="1638" descent="-410" />
<missing-glyph horiz-adv-x="532" />
<glyph unicode="&#xfb01;" horiz-adv-x="1136" d="M-139 -393q0 215 153.5 676.5t359.5 826.5t363 365q39 0 54.5 -24t15.5 -65q0 -113 -80 -256t-207 -280t-260 -232q-23 -51 -35 -90q33 -12 47 -51q53 -174 185 -174q61 0 128.5 37t127.5 96q47 113 103 185.5t110 72.5q18 0 31.5 -12t13.5 -33q0 -29 -66 -137 q-68 -113 -107.5 -202t-39.5 -169q0 -72 23.5 -97.5t76.5 -25.5q160 0 316 314l18 -21q-57 -172 -169 -268t-235 -96q-76 0 -116.5 48t-40.5 124q0 90 49 233q-59 -49 -126 -75.5t-132 -26.5q-70 0 -141 33q8 -57 8 -131q0 -170 -46 -339t-120 -277.5t-150 -108.5 q-43 0 -77.5 39.5t-34.5 140.5zM-12 -377q0 -47 10 -72.5t29 -25.5q39 0 88 103.5t85 253t36 276.5q0 78 -10.5 136t-51.5 91q-84 -242 -135 -449.5t-51 -312.5zM293 702q125 115 224 240t154.5 224.5t55.5 142.5q0 29 -29 28q-76 0 -184 -177t-221 -458zM950 952 q0 41 49.5 74t100.5 33q68 0 67 -64q0 -39 -42 -74.5t-91 -35.5q-37 0 -60.5 17.5t-23.5 49.5z" />
<glyph unicode="&#xfb02;" horiz-adv-x="1124" d="M-139 -393q0 215 153.5 676.5t359.5 826.5t363 365q39 0 54.5 -24t15.5 -65q0 -113 -80 -256t-207 -280t-260 -232q-23 -51 -35 -90q18 -6 30.5 -23.5t16.5 -39.5q12 -109 63.5 -158t125.5 -49q94 0 209 68q47 211 171 483t254 469t189 197q29 0 48.5 -50.5t19.5 -101.5 q0 -94 -77 -277.5t-202 -372t-266 -304.5q-27 -119 -27 -207q0 -158 90 -158q76 0 154 95.5t139 232.5l33 -17q-176 -377 -385 -376q-84 0 -124 57t-40 154q0 55 12 122q-115 -63 -227 -63q-78 0 -147 39q4 -66 4 -96q0 -170 -46 -339t-120 -277.5t-150 -108.5 q-43 0 -77.5 39.5t-34.5 140.5zM-12 -377q0 -47 10 -72.5t29 -25.5q39 0 88 103.5t85 251t36 267.5q0 162 -64 230q-82 -242 -133 -446.5t-51 -307.5zM293 702q125 115 224 240t154.5 224.5t55.5 142.5q0 29 -29 28q-76 0 -184 -177t-221 -458zM825 438q113 113 220.5 284 t175 327.5t67.5 226.5q0 33 -14 33q-29 0 -118 -140.5t-183 -343t-148 -387.5z" />
<glyph horiz-adv-x="0" />
<glyph unicode="&#xd;" horiz-adv-x="532" />
<glyph horiz-adv-x="0" />
<glyph horiz-adv-x="0" />
<glyph unicode=" "  horiz-adv-x="532" />
<glyph unicode="&#x09;" horiz-adv-x="532" />
<glyph unicode="&#xa0;" horiz-adv-x="532" />
<glyph unicode="!" horiz-adv-x="532" d="M-43 35q0 33 39 58.5t80 25.5q53 0 53 -49q0 -31 -34 -60.5t-72 -29.5q-29 0 -47.5 14t-18.5 41zM82 211q0 63 30.5 159.5t82.5 229.5q160 414 267 644.5t181 230.5q16 0 28.5 -13.5t12.5 -34.5q0 -53 -115.5 -303t-263 -527.5t-223.5 -385.5z" />
<glyph unicode="&#x22;" horiz-adv-x="501" d="M268 1255q0 68 41 144t84 76q20 0 35.5 -17.5t15.5 -40.5q-43 -45 -69.5 -91t-45 -88t-26.5 -58q-35 20 -35 75zM514 1255q0 68 41 144t84 76q20 0 35.5 -17.5t15.5 -40.5q-43 -45 -69.5 -91t-45 -88t-26.5 -58q-35 20 -35 75z" />
<glyph unicode="#" horiz-adv-x="1368" d="M18 317q6 74 123 107t320 37q18 94 28 131l-75 -6q-102 -4 -203 -15l-117 -10q10 131 420 141q49 225 86 431l51 249q8 37 24.5 58.5t67.5 34.5l-41 -215q-57 -313 -104 -555h8q90 0 254 -9q31 143 88 437l51 249q8 37 24.5 58.5t68.5 34.5l-37 -191l-113 -592 q63 -2 162 -10q184 -12 252 -12q-49 -43 -96.5 -54.5t-110.5 -11.5l-223 -2q-2 -8 -4 -17.5t-4 -23.5l-23 -115l131 -8q184 -12 252 -12q-49 -43 -96 -54.5t-109 -11.5q-137 0 -196 -2q-53 -260 -92.5 -400t-93.5 -215t-134 -75q94 115 227 684h-258q-55 -266 -93 -401 t-90 -209t-134 -74q94 115 225 680q-131 -6 -301 -20zM549 461q94 0 258 -8l33 147q-113 0 -265 -4z" />
<glyph unicode="$" horiz-adv-x="1087" d="M2 195q0 86 40 146t101.5 91t120.5 31q-55 -59 -83.5 -131t-28.5 -142q0 -104 63.5 -165.5t181.5 -73.5q66 221 148 588q-94 53 -148.5 94t-93.5 104.5t-39 149.5q0 109 60.5 205t163 160.5t221.5 82.5q2 10 9 44t29.5 59.5t63.5 36.5q-14 -72 -25 -134q129 0 180.5 -55 t51.5 -158q0 -80 -25.5 -164.5t-72.5 -164.5q-35 8 -53.5 31.5t-18.5 54.5q0 35 35 135q4 10 22.5 70.5t18.5 101.5q0 49 -35 74.5t-113 25.5l-121 -639q92 -49 150.5 -92t98.5 -108.5t40 -159.5q0 -119 -63.5 -207t-170 -139t-229.5 -62q-41 -109 -90 -163t-115 -54 q46 57 101 217q-162 10 -268.5 89t-106.5 221zM393 938q0 -84 48 -138.5t139 -105.5q33 154 84 418l34 172q-88 -18 -157.5 -72.5t-108.5 -128t-39 -145.5zM502 -49q139 14 220 90t81 190q0 88 -47 148.5t-133 114.5q-90 -451 -121 -543z" />
<glyph unicode="%" horiz-adv-x="1429" d="M160 -178q90 90 272 391t359.5 642t248.5 527q10 31 67.5 62t104.5 31q-39 -98 -294.5 -589t-378.5 -687q-117 -186 -207 -281.5t-172 -95.5zM201 932q0 94 39 196.5t106.5 172t151.5 69.5q78 0 125 -58.5t47 -154.5q0 -90 -40 -195.5t-109.5 -178t-151.5 -72.5 t-125 63.5t-43 157.5zM313 915q0 -57 17.5 -92t50.5 -35q47 0 89 62.5t67.5 153t25.5 170.5q0 123 -65 122q-55 0 -97.5 -64.5t-65 -154.5t-22.5 -162zM862 221q0 94 39 196.5t106.5 172t151.5 69.5q78 0 125 -58t47 -155q0 -90 -40 -195.5t-109.5 -178t-151.5 -72.5 t-125 63.5t-43 157.5zM975 207q0 -59 17.5 -94t49.5 -35q48 0 90 62.5t67.5 152.5t25.5 170q0 123 -66 123q-55 0 -97 -64.5t-64.5 -155t-22.5 -159.5z" />
<glyph unicode="&#x26;" horiz-adv-x="1261" d="M-6 195q0 125 71.5 241.5t193.5 195.5t265 93q-78 63 -116.5 148t-38.5 176q0 109 55 207t152.5 157.5t216.5 59.5q111 0 167 -55.5t56 -162.5q0 -74 -24.5 -146.5t-61.5 -119.5t-70 -47q-23 0 -43 18.5t-33 47.5q80 70 124 138t44 142q0 66 -34.5 105t-104.5 39 q-137 0 -216 -122t-79 -296q0 -207 119 -309q-131 -23 -234.5 -103t-161 -191.5t-57.5 -222.5q0 -117 64.5 -207t197.5 -90q141 0 272.5 93.5t219.5 244t106 312.5q-59 -2 -110 -9.5t-109 -19.5l-49 -10q2 80 59.5 111.5t153.5 31.5q76 0 191 -20q18 -2 57 -8.5t66 -6.5 q-20 -43 -40 -54t-46 -11q-47 -2 -119 -2q-18 -186 -121 -352t-258.5 -267.5t-325.5 -101.5q-119 0 -210 50t-140 135t-49 188z" />
<glyph unicode="'" horiz-adv-x="256" d="M268 1255q0 68 41 144t84 76q20 0 35.5 -17.5t15.5 -40.5q-43 -45 -69.5 -91t-45 -88t-26.5 -58q-35 20 -35 75z" />
<glyph unicode="(" horiz-adv-x="528" d="M117 387q0 301 112.5 550t264 393.5t251.5 144.5q-256 -182 -382.5 -494.5t-126.5 -648.5q0 -152 25.5 -271.5t70.5 -195.5q-12 -29 -41 -43q-76 45 -125 204.5t-49 360.5z" />
<glyph unicode=")" horiz-adv-x="548" d="M-125 -129q229 162 377.5 448.5t148.5 653.5q0 143 -31.5 265t-113.5 237q59 -14 116.5 -90t95.5 -203t38 -291q0 -283 -109.5 -527.5t-253 -393t-223.5 -148.5q-25 6 -45 49z" />
<glyph unicode="*" horiz-adv-x="800" d="M238 1171q41 2 82.5 4.5t87.5 4.5l69 2q-98 162 -98 235q0 20 13.5 35.5t15.5 17.5q8 -16 35.5 -74.5t52 -104.5t51.5 -87l18 39q47 106 84 159.5t92 67.5q-12 -33 -37.5 -86t-35.5 -73q-53 -106 -64 -129q92 6 107 6q123 0 176 -60l-266 -24l22 -35q41 -61 62.5 -111.5 t21.5 -130.5q-35 42 -182 263q-63 -123 -112.5 -188.5t-98.5 -65.5q35 49 55.5 89t46.5 101q10 18 18.5 38.5t18.5 39.5h-53q-72 0 -122 13t-60 54z" />
<glyph unicode="+" horiz-adv-x="835" d="M6 295q18 51 102.5 73.5t223.5 26.5v103q0 129 59 211q16 -141 19 -314q180 -2 327 -18q-82 -59 -211 -60h-116q-4 -147 -26 -233t-75 -107q15 91 19 159.5t4 180.5q-104 0 -171 -4t-155 -18z" />
<glyph unicode="," horiz-adv-x="401" d="M-20 -104q0 68 40.5 143.5t83.5 75.5q20 0 36 -17.5t16 -40.5q-43 -45 -70 -91t-45 -88t-27 -58q-34 21 -34 76z" />
<glyph unicode="-" horiz-adv-x="991" d="M74 295q20 57 120.5 78.5t266.5 21.5t344 -18q-82 -59 -211 -60h-195q-109 0 -171 -4t-154 -18z" />
<glyph unicode="." horiz-adv-x="438" d="M16 35q0 33 39 58.5t80 25.5q53 0 53 -49q0 -31 -33.5 -60.5t-72.5 -29.5q-29 0 -47.5 14t-18.5 41z" />
<glyph unicode="/" horiz-adv-x="675" d="M-139 -332q190 190 778 1714q10 31 67.5 62t104.5 31q-31 -80 -243 -592t-349 -838q-76 -178 -172 -277.5t-186 -99.5z" />
<glyph unicode="0" horiz-adv-x="1290" d="M109 356q0 240 97 503t267 439.5t377 176.5q123 0 214 -62.5t141 -176.5t50 -265q0 -279 -100 -546t-274 -435t-381 -168q-193 0 -292 152.5t-99 381.5zM281 313q0 -193 66.5 -307.5t180.5 -114.5q148 0 280 181.5t212 446.5t80 495q0 186 -59.5 295.5t-188.5 109.5 q-172 0 -302 -187.5t-199.5 -450.5t-69.5 -468z" />
<glyph unicode="1" horiz-adv-x="747" d="M-94 -94q41 -4 65 -4q90 0 222 22q55 127 103 337t110 536q45 250 81 399q-190 -135 -235 -135q-27 0 -39 12t-12 47q68 35 198.5 139.5t231.5 215.5q18 -16 18 -64q0 -37 -24 -127q-14 -61 -23 -102q-49 -340 -131 -687.5t-180 -555.5q43 6 82 6q86 0 136 -24.5 t62 -90.5q-92 10 -161 10q-90 0 -189 -10q-106 -8 -160 -8q-38 0 -83.5 22.5t-71.5 61.5z" />
<glyph unicode="2" horiz-adv-x="1144" d="M-39 0q0 98 154 98q72 0 215 -28q129 115 257 297t210 385.5t82 375.5q0 147 -59.5 219t-157.5 72q-131 0 -206 -116.5t-75 -296.5q0 -41 5 -71t20 -69h-11q-74 18 -108.5 59.5t-34.5 123.5q0 111 56.5 209t157.5 157.5t228 59.5q98 0 173 -49.5t115 -134.5t40 -189 q0 -190 -96 -404q-80 -178 -215.5 -354t-282.5 -297l57 -12q274 -63 383 -64q39 0 73 11.5t83 40.5q-27 -104 -77 -152.5t-132 -48.5q-70 0 -167 31.5t-226 87.5q-18 8 -41 17t-47 19q-137 -88 -234 -88q-61 0 -100 31t-39 80zM25 -4q0 -23 22.5 -37t50.5 -14q60 0 154 63 q-104 37 -156 37q-37 0 -54 -15.5t-17 -33.5z" />
<glyph unicode="3" horiz-adv-x="1044" d="M12 113q0 86 45 153.5t121 67.5q27 0 37 -2q-29 -25 -47 -80t-18 -111q0 -102 60 -178t157 -76q82 0 158.5 58.5t124.5 163t48 235.5q0 135 -54 239.5t-173 135.5q96 43 172 128t118 185.5t42 188.5q0 102 -53.5 150t-131.5 48q-92 0 -162.5 -60.5t-70.5 -160.5 q0 -70 33 -137q-10 -23 -36 -40t-46 -17q-35 0 -55.5 51t-20.5 110q0 94 55.5 165t144.5 108t183 37q133 0 224 -69t91 -196q0 -90 -48 -190t-131 -177t-179 -104q160 -41 233.5 -154.5t73.5 -240.5q0 -129 -73.5 -250t-202.5 -196.5t-283 -75.5q-119 0 -193.5 44 t-108.5 110.5t-34 136.5z" />
<glyph unicode="4" horiz-adv-x="978" d="M-16 453q0 55 36 86q88 102 308 309q215 203 346 344t211 283q8 -4 15 -17.5t7 -36.5q0 -47 -39 -112q-57 -242 -147 -719h86q78 0 123 12q-37 -53 -91.5 -87t-93.5 -34h-45q-16 -82 -22 -123q-20 -109 -45 -294t-25 -242q-157 14 -157 96q2 16 14 97t43 251q2 16 45 217 l-170 2q-242 0 -399 -32zM164 590q74 10 207 10q84 0 207 -4q82 362 129 520q-51 -51 -226 -213q-188 -176 -262 -254q-16 -18 -29.5 -32.5t-25.5 -26.5z" />
<glyph unicode="5" horiz-adv-x="989" d="M-6 111q0 88 45 155.5t121 67.5q27 0 37 -2q-29 -25 -47.5 -80t-18.5 -119q0 -104 51 -175t158 -71q102 0 181 70t121 178.5t42 220.5q0 139 -67.5 229.5t-206.5 90.5q-76 0 -189 -23q23 147 162 625l51 182q106 -27 217 -26q76 0 146.5 10t171.5 31q8 -31 8 -56 q0 -82 -74 -117.5t-178 -35.5q-68 0 -150 16q-47 10 -73 10q-18 0 -26.5 -7t-20.5 -34q-29 -66 -63 -185.5t-77 -291.5l-16 -61q96 20 178 20q199 0 302.5 -106.5t103.5 -280.5q0 -145 -70 -265t-193.5 -189.5t-279.5 -69.5q-125 0 -202 44t-110.5 109.5t-33.5 135.5z" />
<glyph unicode="6" horiz-adv-x="1148" d="M100 328q0 242 101.5 512t283 452.5t404.5 182.5q88 0 140 -30t52 -89q0 -70 -94 -99q0 14 2 26.5t2 31.5q0 51 -24.5 81.5t-87.5 30.5q-123 0 -232.5 -116.5t-190.5 -298t-128 -379.5q68 63 159 98t187 35q164 0 269.5 -100.5t105.5 -296.5q0 -154 -68 -279 t-188.5 -196.5t-274.5 -71.5q-217 0 -317.5 139t-100.5 367zM283 287q0 -152 54 -276t191 -124q101 0 178.5 73t120.5 187.5t43 233.5q0 156 -72.5 235.5t-183.5 79.5q-174 0 -252.5 -115.5t-78.5 -293.5z" />
<glyph unicode="7" horiz-adv-x="825" d="M121 592q2 82 81 107.5t208 25.5h49q76 143 221 379l117 196q-63 0 -150 -6q-35 -2 -82 -4t-98 -2q-209 0 -209 96q0 37 27 86l63 -12q86 -14 149.5 -21t161.5 -7q223 0 345 40q-63 -102 -111 -153q-166 -244 -328 -598l68 -4q72 -6 135 -6q41 0 66 6q-72 -104 -162 -105 q-88 0 -156 2l-31 -71q-72 -172 -111.5 -294t-39.5 -224q0 -59 24 -78q-29 -61 -78 -92t-85 -31q-29 0 -49.5 24.5t-20.5 67.5q0 82 73.5 261t200.5 437q-66 -2 -148.5 -8t-129.5 -12z" />
<glyph unicode="8" horiz-adv-x="1079" d="M59 158q0 96 50.5 178t123 145.5t197.5 153.5l72 53q-111 121 -170.5 221.5t-59.5 225.5q0 115 55.5 190.5t141.5 111.5t182 36q141 0 225.5 -77t84.5 -218q0 -137 -77 -245t-216 -218q86 -94 136 -156.5t86 -141.5t36 -167q0 -127 -73 -224.5t-189.5 -150.5t-245.5 -53 t-209 52t-115 128t-35 156zM184 164q0 -78 36 -137.5t94.5 -92t123.5 -32.5q76 0 151 43t122 120.5t47 176.5q0 104 -52.5 191t-150.5 196q-125 -90 -197.5 -153.5t-123 -142.5t-50.5 -169zM432 1161q0 -104 47 -194t135 -191q109 90 168.5 187.5t59.5 216.5 q0 115 -54.5 176t-134.5 61q-51 0 -102 -26.5t-85 -84t-34 -145.5z" />
<glyph unicode="9" horiz-adv-x="1159" d="M176 946q0 150 64.5 269.5t181.5 189.5t266 70q225 0 330.5 -148.5t105.5 -388.5q0 -242 -94 -503t-265 -437t-390 -176q-90 0 -143.5 30.5t-53.5 92.5q0 66 90 94l-2 -51q0 -53 25.5 -86t91.5 -33q123 0 228.5 116.5t180 298t113.5 380.5q-63 -63 -153 -98.5t-187 -35.5 q-168 0 -278.5 105.5t-110.5 310.5zM354 934q0 -166 77 -250t192 -84q157 0 235 96.5t78 264.5q0 186 -57.5 317t-198.5 131q-96 0 -171 -69.5t-115 -179t-40 -226.5z" />
<glyph unicode=":" horiz-adv-x="442" d="M20 35q0 33 39 58.5t80 25.5q53 0 54 -49q0 -31 -34 -60.5t-73 -29.5q-29 0 -47.5 14t-18.5 41zM143 547q0 33 39 58.5t80 25.5q53 0 53 -49q0 -31 -33.5 -60.5t-72.5 -29.5q-29 0 -47.5 14t-18.5 41z" />
<glyph unicode=";" horiz-adv-x="436" d="M2 -104q0 68 41 143.5t84 75.5q20 0 35.5 -17.5t15.5 -40.5q-43 -45 -69.5 -91t-45 -88t-26.5 -58q-35 21 -35 76zM143 547q0 33 39 58.5t80 25.5q53 0 53 -49q0 -31 -33.5 -60.5t-72.5 -29.5q-29 0 -47.5 14t-18.5 41z" />
<glyph unicode="&#x3c;" horiz-adv-x="634" d="M43 324q100 43 212 137t177 186q4 -8 7 -20.5t3 -24.5q0 -74 -100 -149.5t-246 -151.5q82 -59 143.5 -94t188.5 -84q-29 -33 -59 -33q-47 0 -121 41t-134.5 97.5t-70.5 95.5z" />
<glyph unicode="=" horiz-adv-x="1030" d="M106 217q21 57 121.5 78.5t266.5 21.5t344 -18q-82 -59 -211 -59h-207q-102 0 -163.5 -4.5t-150.5 -18.5zM106 422q21 57 121.5 78.5t266.5 21.5t344 -18q-82 -59 -211 -60h-207q-102 0 -163.5 -4t-150.5 -18z" />
<glyph unicode="&#x3e;" horiz-adv-x="663" d="M125 602q0 12 3 24.5t7 20.5q66 -92 177.5 -186t211.5 -137q-10 -39 -70.5 -95.5t-134 -97.5t-120.5 -41q-31 0 -60 33q127 49 188.5 84t143.5 94q-145 76 -245.5 151.5t-100.5 149.5z" />
<glyph unicode="?" horiz-adv-x="894" d="M221 1024q0 117 55.5 220.5t153.5 167t221 63.5q129 0 203 -71t74 -202q0 -109 -47 -189.5t-142 -187.5q-84 -96 -134 -169.5t-77 -170.5q-14 -49 -22 -114q-12 -78 -29 -117q-39 20 -51 37.5t-12 58.5q0 106 47 191.5t141 201.5q68 86 108 145.5t67.5 135.5t27.5 162 q0 111 -45 171t-117 60t-144.5 -59.5t-118.5 -159.5t-46 -215q0 -49 14 -117q-74 12 -100.5 51t-26.5 107zM328 33q0 35 37.5 60.5t80.5 25.5q53 0 54 -45q0 -35 -33 -64.5t-74 -29.5q-26 0 -45.5 14t-19.5 39z" />
<glyph unicode="@" horiz-adv-x="1193" d="M6 180q0 158 84 303.5t233.5 235.5t335.5 90q143 0 240.5 -52t145 -137t47.5 -182q0 -100 -49.5 -197.5t-131.5 -160t-176 -62.5q-66 0 -98.5 32t-32.5 89q0 12 4 41q-141 -190 -268 -190q-53 0 -87 34.5t-34 100.5q0 98 69.5 218t176 203t209.5 83q63 0 106 -34t43 -89 q0 -70 -82 -70q8 23 9 56q0 41 -18.5 66.5t-59.5 25.5q-74 0 -154 -80t-133 -190.5t-53 -190.5q0 -66 45 -66q66 0 153.5 102.5t190.5 254.5q20 -2 42.5 -13.5t22.5 -27.5q0 -18 -32 -74q-61 -100 -62 -158q0 -68 70 -67q63 0 124.5 51t100.5 134t39 167q0 82 -39 155.5 t-122 120t-206 46.5q-168 0 -300 -84t-205.5 -217.5t-73.5 -274.5q0 -156 92 -262.5t283 -106.5q113 0 225.5 43t212.5 131l12 -16q-84 -94 -201.5 -151.5t-261.5 -57.5q-147 0 -244.5 59.5t-144.5 157t-47 211.5z" />
<glyph unicode="A" d="M-35 -72q0 80 85 250t226 391q-125 10 -221 11h-71q39 106 213 106q55 0 147 -14q158 238 320.5 447.5t257.5 297.5q59 57 98 58q43 0 108 -66q-41 -33 -118.5 -265.5t-139 -508t-61.5 -442.5q0 -82 17.5 -123t58.5 -41q113 0 268 303l21 -21q-63 -168 -158.5 -270 t-196.5 -102q-82 0 -121 72.5t-39 201.5q0 131 35 305q-131 20 -303 41q-201 -369 -356 -737q-70 38 -70 106zM444 653q82 -16 172 -41l93 -22q43 192 110.5 399t134.5 357q-92 -57 -226 -241.5t-284 -451.5z" />
<glyph unicode="B" horiz-adv-x="1245" d="M39 -14q0 6 10 6q8 0 49 -10.5t144 -10.5q227 0 414.5 69t294 181.5t106.5 235.5q0 150 -147.5 204t-368.5 54l-154 -2q-31 -104 -88 -314q-43 -160 -96 -346q-51 0 -86 29t-35 70q0 27 12 65.5t17 50.5q63 213 191 568.5t243 580.5q-121 -20 -238 -90q-37 -20 -45 -20 q-16 0 -40.5 20.5t-24.5 34.5q135 55 238.5 84t246.5 29q188 0 330.5 -69t142.5 -257q0 -182 -136 -274.5t-333 -124.5q467 -29 467 -330q0 -184 -149.5 -320.5t-359.5 -207t-378 -70.5q-114 0 -170.5 39t-56.5 125zM399 760q265 8 449 104.5t184 300.5q0 266 -346 267 q-27 0 -39 -2q-121 -236 -248 -670z" />
<glyph unicode="C" horiz-adv-x="1093" d="M45 322q0 262 129 531t325.5 444.5t387.5 175.5q88 0 138 -43.5t50 -133.5q0 -80 -37 -184t-92 -178t-108 -74q-41 0 -64 47q76 86 147.5 209t71.5 203q0 43 -24.5 67.5t-75.5 24.5q-141 0 -303 -183.5t-271.5 -449.5t-109.5 -491q0 -168 71.5 -282t217.5 -114 q104 0 212.5 60.5t198.5 161t146 219.5l28 -21q-111 -217 -275.5 -353t-358.5 -136q-138 0 -229 69.5t-133 183t-42 247.5z" />
<glyph unicode="D" horiz-adv-x="1337" d="M115 -86q53 256 170.5 636t183.5 552q25 66 65.5 129t94.5 63q29 0 57 -20q-123 -285 -249 -684.5t-193 -706.5q49 -8 88 -8q211 0 403.5 157.5t311 404.5t118.5 499q0 240 -112.5 361.5t-307.5 121.5q-131 0 -238.5 -52t-169 -144.5t-61.5 -202.5q0 -45 11 -76 q-63 0 -93 32t-30 83q0 96 88 192.5t236.5 160t318.5 63.5q260 0 385 -154t125 -408q0 -287 -144.5 -538.5t-373 -402t-465.5 -150.5q-74 0 -128 19.5t-91 72.5z" />
<glyph unicode="E" horiz-adv-x="1019" d="M-31 195q0 125 72 241.5t193.5 195.5t265.5 93q-78 63 -117 148t-39 176q0 109 55.5 207t151.5 157.5t215 59.5q113 0 173 -57.5t60 -164.5q0 -74 -26.5 -145.5t-65.5 -117.5t-71 -46q-23 0 -43.5 18.5t-32.5 47.5q172 150 172 284q0 63 -37 98t-109 35 q-137 0 -214.5 -117.5t-77.5 -293.5q0 -207 118 -309q-131 -23 -234.5 -103t-160.5 -191.5t-57 -222.5q0 -117 64.5 -207t197.5 -90q104 0 212.5 60.5t199 161t145.5 219.5l29 -21q-115 -221 -279 -355t-360 -134q-119 0 -210 50t-140.5 135t-49.5 188z" />
<glyph unicode="F" horiz-adv-x="987" d="M135 1104q0 104 75 186t204 128t284 46q76 0 215 -16q20 -2 82 -8t111 -6q82 0 151 20q-72 -82 -123 -112.5t-108 -30.5q-39 0 -139 14q-51 10 -152 21q-57 -139 -196 -580q98 -6 184 -18q129 -12 174 -15q-23 -33 -54.5 -46t-98 -17t-236.5 -8l-90 -306 q-102 -344 -107 -534q-86 6 -112.5 45t-26.5 117q0 86 41 217t127 366q12 29 33 86q-51 -4 -158 -18l-70 -10q8 135 269 143q133 367 237 584q-53 4 -80 4q-131 0 -201.5 -26.5t-98 -80t-27.5 -143.5q0 -84 26 -162q-135 23 -135 160z" />
<glyph unicode="G" horiz-adv-x="1134" d="M45 330q0 256 129 524t326.5 443.5t386.5 175.5q109 0 161 -66t52 -166q0 -72 -24.5 -141.5t-66.5 -113.5t-89 -44q-41 0 -64 47q31 20 69 75.5t64.5 121t26.5 117.5q0 49 -30 78.5t-93 29.5q-141 0 -303 -184.5t-271.5 -450.5t-109.5 -487q0 -182 76.5 -290t197.5 -108 q102 0 192.5 96.5t149 242t68.5 282.5q-119 27 -211 27l-125 -2q25 106 139 106q49 0 99.5 -14.5t138.5 -44.5q51 -23 108 -37l-14 -66q-72 -188 -98.5 -301.5t-26.5 -197.5q0 -33 4 -95q4 -41 4 -65q-110 43 -110 145q0 47 14 96q-173 -241 -385 -241h-2q-109 0 -196 60.5 t-137 176t-50 271.5z" />
<glyph unicode="H" horiz-adv-x="1263" d="M113 -178q26 149 73 325.5t152 495.5l-135 -14q2 90 170 125q76 231 174 514l15 45t13 76q0 16 -5 22t-23 6q-63 0 -121.5 -65.5t-95.5 -157.5t-37 -162q0 -39 10 -69q-63 0 -93 31.5t-30 84.5q0 88 68.5 181.5t167 154t174.5 60.5q51 0 72.5 -28t21.5 -71q0 -35 -16 -88 l-160 -520q74 4 119 4q160 0 348 -18q63 211 121.5 385t85.5 229q49 106 112 107q-41 -109 -99 -309.5t-116 -420.5q20 0 66 -4q61 -4 88 -4q-41 -43 -80 -54t-92 -11q-43 -176 -64 -281q-67 -317 -67 -490v-5q0 -37 4 -74q-78 8 -109.5 44t-31.5 116q0 119 49 309 q33 135 108 379q-164 0 -277.5 -3t-199.5 -12q-176 -555 -219 -702q-20 -66 -61 -98.5t-80 -32.5z" />
<glyph unicode="I" horiz-adv-x="940" d="M-78 -180q10 102 94 133t240 31q61 131 118.5 348t135.5 557q10 45 50 216t69 249q-162 -4 -255 -12.5t-206 -28.5q14 80 113.5 118.5t304.5 38.5q133 0 283.5 -14t252.5 -29q-43 -43 -93 -57t-105 -14q-160 0 -224 -2l-14 -74q-127 -705 -188 -948q-35 -139 -76 -226.5 t-96 -123.5q96 -6 198 -19q150 -18 246 -20q-88 -88 -231 -88h-101q-188 -2 -296.5 -7.5t-219.5 -27.5z" />
<glyph unicode="J" horiz-adv-x="841" d="M-63 90q0 129 44 236.5t111 107.5q25 0 58 -16q-74 -186 -74 -328q0 -92 32.5 -143t96.5 -51q55 0 96 47t86 168q72 199 165 592t144 663q-152 -2 -234.5 -10t-178.5 -31q23 145 333 145q106 0 227.5 -14t200.5 -29q-20 -35 -66 -47t-91 -12l-146 -2q20 -16 31.5 -44 t11.5 -52q0 -53 -42 -271.5t-108.5 -464t-139.5 -409.5q-76 -172 -156 -236.5t-180 -64.5q-221 0 -221 266z" />
<glyph unicode="K" horiz-adv-x="1208" d="M61 -141q47 106 111 283t213 616l174 510q2 4 14.5 37.5t12.5 62.5q0 49 -49 49q-63 0 -122 -65.5t-95.5 -157.5t-36.5 -162q0 -39 10 -69q-63 0 -93 31.5t-30 84.5q0 88 68.5 181.5t167 154t174.5 60.5q51 0 72.5 -28t21.5 -71q0 -35 -17 -88l-172 -557q20 27 55 57.5 t74 61.5l48 37q154 123 312.5 284.5t246.5 303.5q8 -10 13 -40t5 -51q0 -223 -745 -725q111 -186 179 -290.5t176.5 -224t274.5 -255.5q-14 -29 -44.5 -48t-65.5 -19q-70 0 -178.5 130t-217 313.5t-176.5 330.5l-198 -643q-18 -61 -64.5 -77.5t-118.5 -16.5z" />
<glyph unicode="L" horiz-adv-x="1167" d="M-152 70q0 41 36 65.5t114 24.5q90 0 252 -43q51 90 96 214t111 333l49 155q-94 31 -148.5 90.5t-54.5 128.5q0 59 36 110.5t91 51.5q-14 -18 -20.5 -55t-6.5 -72q0 -76 32 -129t85 -82q94 289 196.5 451t244.5 162q76 0 137 -49.5t61 -159.5q0 -102 -55 -212 t-167 -184.5t-269 -74.5h-33q-84 -254 -149.5 -420t-145.5 -285q16 -6 34.5 -11t37.5 -11q174 -53 278.5 -79t192.5 -26q82 0 145 33q-33 -92 -86 -133t-129 -41q-80 0 -175 34.5t-251 106.5l-106 49q-109 -121 -228 -121q-61 0 -108 29t-72 71t-25 79zM-56 -10 q42 -39 101 -39q86 0 158 94q-152 61 -234 61q-67 0 -67 -37q0 -40 42 -79zM647 834q115 0 207 83.5t143.5 199.5t51.5 204q0 55 -20.5 78.5t-53.5 23.5q-86 0 -158 -146.5t-170 -442.5z" />
<glyph unicode="M" horiz-adv-x="1562" d="M-35 -178l66 145q39 84 213 467t370 828q20 47 21 84q0 27 -14.5 40t-55.5 13q-82 0 -139 -56.5t-86 -142.5t-29 -174q0 -27 4 -63q-53 0 -80.5 53t-27.5 114q0 86 61.5 166t154.5 129.5t183 49.5q72 0 116 -39t67.5 -139.5t23.5 -280.5q0 -166 -25 -498 q-12 -158 -18 -309q70 268 259.5 612t324.5 543q33 49 52 66.5t50 17.5q29 0 66 -14q-51 -123 -92 -287q-70 -270 -128.5 -621.5t-58.5 -535.5q0 -49 4 -74t15 -53l12 -41q-70 0 -105.5 22.5t-49 69.5t-13.5 137q0 219 51 467t154 637q-90 -117 -201 -335t-206 -445.5 t-142 -368.5q-23 -8 -31 -8q-51 0 -70.5 60.5t-19.5 189.5q0 115 16 442q16 324 17 428q0 57 -4 115q-147 -342 -254 -606q-141 -340 -211 -493.5t-127.5 -232.5t-112.5 -79z" />
<glyph unicode="N" horiz-adv-x="1310" d="M94 -178q35 129 152 512q125 403 282 934q14 51 15 84q0 47 -31 47q-63 0 -117.5 -61.5t-87.5 -147.5t-33 -156q0 -41 11 -71q-63 0 -93 31.5t-30 84.5q0 88 68.5 181.5t166 154t174.5 60.5q76 0 122 -85t68.5 -213t47.5 -341q43 -383 90 -689q27 174 95.5 440.5t141 503 t93.5 283.5q14 33 51 67t78 34q-74 -195 -170 -533t-166 -654.5t-72 -465.5q-66 0 -104.5 38t-54.5 128q-27 143 -87.5 545.5t-99.5 672.5q-190 -686 -266 -936t-128 -349t-116 -99z" />
<glyph unicode="O" horiz-adv-x="1275" d="M43 330q0 256 130 524t328.5 443.5t389.5 175.5q78 0 123 -25h-23q-170 0 -350 -181.5t-299 -451.5t-119 -514q0 -178 68.5 -294t206.5 -116q182 0 332.5 179.5t237.5 447.5t87 516q0 104 -22.5 193.5t-69.5 89.5t-105.5 -75t-106.5 -179.5t-65 -183.5q-49 12 -73.5 38.5 t-24.5 61.5q0 70 64.5 164t152.5 161.5t154 67.5q94 0 134 -121t40 -274q0 -350 -125 -613.5t-311.5 -402.5t-360.5 -139q-117 0 -206 62.5t-138 178t-49 267.5z" />
<glyph unicode="P" horiz-adv-x="1079" d="M37 -76q0 31 29 113q156 483 258 770t245 612q-113 -23 -237 -92q-41 -20 -47 -20q-14 0 -39 20.5t-25 34.5q262 113 453 113q127 0 248.5 -46.5t199.5 -135.5t78 -214q0 -193 -151.5 -298t-329.5 -140t-299 -35h-21q-10 -35 -123 -438q-72 -260 -98 -346q-55 0 -98 29.5 t-43 72.5zM408 639q161 8 310.5 63.5t247 160t97.5 251.5q0 156 -106.5 236t-264.5 82q-125 -248 -284 -793z" />
<glyph unicode="Q" horiz-adv-x="1419" d="M183.5 910.5q111.5 248.5 298 406.5t401.5 158q195 0 305 -133.5t110 -364.5q0 -170 -60 -360.5t-165.5 -357.5t-236.5 -267q80 -45 152.5 -69.5t150.5 -24.5q45 0 75.5 10t42.5 14q-49 -166 -200 -166q-84 0 -158 43t-170 125q-106 -53 -205 -53q-86 0 -136 33 t-69.5 74.5t-19.5 72.5q0 41 38 74t112 33q76 0 145.5 -32t179.5 -99q115 104 202 285.5t133 380t46 349.5q0 176 -66.5 276.5t-203.5 100.5q-186 0 -341 -177t-243 -441t-88 -506q0 -96 16 -172q-157 0 -157 281q0 258 111.5 506.5zM352 49q0 -41 40 -84t132 -43 q80 0 160 43q-78 68 -136.5 103.5t-119.5 35.5q-43 0 -59.5 -16t-16.5 -39z" />
<glyph unicode="R" horiz-adv-x="1181" d="M33 -76q0 31 28 113q137 426 252 734t267 652q-78 -12 -134.5 -35.5t-121.5 -58.5q-39 -23 -50 -22q-14 0 -38.5 20.5t-24.5 34.5q262 113 461 113q127 0 245.5 -41t195.5 -127t77 -215q0 -182 -146.5 -281.5t-319.5 -131.5t-298 -32q20 -37 37.5 -67.5t32.5 -55.5 q88 -158 154.5 -260t165.5 -216t239 -228q-12 -27 -44 -47.5t-61 -20.5q-71 0 -179.5 136.5t-216.5 328t-175 350.5q-47 -158 -111 -389q-35 -131 -100 -356q-53 0 -94 29.5t-41 72.5zM412 680q161 10 306.5 61.5t240 149.5t94.5 244q0 156 -105.5 226.5t-261.5 70.5 q-123 -246 -274 -752z" />
<glyph unicode="S" horiz-adv-x="1097" d="M-12 188q0 145 79.5 210t182.5 65q-55 -59 -84 -131t-29 -144q0 -123 81 -204.5t233 -81.5q96 0 183 34.5t142 102t55 162.5q0 82 -40.5 144.5t-102 106.5t-164.5 105q-104 61 -166.5 107.5t-105.5 112t-43 151.5q0 119 73.5 247t208 214t302.5 86q113 0 164 -55.5 t51 -149.5q0 -102 -49.5 -229.5t-108.5 -221.5q-68 14 -68 88q0 39 15.5 88t44.5 123q31 80 46 130t15 89q0 43 -25.5 65.5t-89.5 22.5q-121 0 -224 -74.5t-164.5 -181t-61.5 -194.5q0 -66 36 -117t89 -89t145 -89q111 -63 178.5 -113.5t115.5 -127.5t48 -181 q0 -135 -78.5 -233.5t-201.5 -150.5t-254 -52q-115 0 -213.5 41t-156.5 124t-58 201z" />
<glyph unicode="T" horiz-adv-x="1003" d="M141 1294q8 96 139.5 138t360.5 43q166 0 395 -25q68 -8 137.5 -14t126.5 -6q-66 -57 -149.5 -77t-200.5 -20l-145 2q-168 -420 -322 -977l-18 -67q-47 -172 -65.5 -257t-18.5 -167q0 -31 2 -45q-88 0 -125 38t-37 107q0 53 19.5 124t56.5 175q86 248 202.5 553 t215.5 516q-221 -4 -332 -11t-242 -30z" />
<glyph unicode="U" horiz-adv-x="1445" d="M51 1104q0 86 54.5 172t144.5 142.5t192 56.5q109 0 160 -66t51 -182q0 -102 -31.5 -227.5t-97.5 -333.5q-61 -199 -92 -319t-31 -214q0 -102 42 -165.5t130 -63.5q104 0 190.5 87t145 214t88.5 254q111 455 198 735.5t159 280.5q16 0 44.5 -17.5t57.5 -48.5 q-37 -25 -131 -284t-170 -560t-76 -479q0 -137 37 -188.5t127 -51.5q-72 -49 -135 -49q-74 0 -120 63.5t-46 153.5q0 63 19 187q-174 -379 -443 -379q-127 0 -196.5 77.5t-69.5 200.5q0 84 29.5 204t91.5 325q68 227 101.5 364t33.5 244q0 180 -115 180q-70 0 -119 -57 t-73.5 -140t-24.5 -157q0 -61 17 -100q-74 0 -108 38.5t-34 102.5z" />
<glyph unicode="V" horiz-adv-x="1294" d="M51 1110q0 84 52.5 169t139.5 140.5t183 55.5q125 0 188.5 -97.5t63.5 -267.5q0 -150 -41 -315.5t-117 -399.5q-53 -162 -79.5 -262t-26.5 -168q0 -39 12 -59.5t45 -20.5q113 0 287 215t304 508t130 506q0 96 -29.5 146.5t-83.5 66.5q29 47 59.5 70.5t59.5 23.5 q49 0 87 -59t38 -168q0 -219 -153.5 -550t-365.5 -576.5t-374 -245.5q-63 0 -119.5 37t-56.5 127q0 55 22.5 142t71.5 243q80 254 122 427t42 332q0 96 -6 153.5t-33 95.5t-84 38q-70 0 -118 -54t-70.5 -134t-22.5 -156q0 -68 19 -110q-76 0 -111 40.5t-35 106.5z" />
<glyph unicode="W" horiz-adv-x="1855" d="M51 1110q0 84 52.5 169t139.5 140.5t183 55.5q125 0 188.5 -97.5t63.5 -267.5q0 -150 -41 -314.5t-117 -398.5q-53 -162 -79.5 -262t-26.5 -170q0 -41 13 -60.5t48 -19.5q96 0 231.5 169t244 393.5t126.5 361.5q61 0 92 -32t31 -68q0 -27 -16.5 -72t-59.5 -148 q-74 -172 -112.5 -290.5t-38.5 -227.5q0 -43 11 -64.5t46 -21.5q113 0 287 215t304 508t130 506q0 96 -29.5 146.5t-83.5 66.5q29 47 60 70.5t59 23.5q49 0 87 -59t38 -168q0 -219 -153.5 -550t-365.5 -576.5t-374 -245.5q-68 0 -122 40t-54 113q0 55 41 185 q-111 -156 -219.5 -247t-204.5 -91q-63 0 -119.5 37t-56.5 127q0 55 22.5 142t71.5 243q80 254 122 427t42 332q0 96 -6 153.5t-33 95.5t-84 38q-70 0 -118 -54t-70.5 -134t-22.5 -156q0 -68 19 -110q-76 0 -111 40.5t-35 106.5z" />
<glyph unicode="X" horiz-adv-x="1355" d="M51 -229q6 61 26.5 96t74.5 90q231 250 464 547l-6 82q-10 131 -14 372q-2 190 -9 277.5t-32 134.5t-80 47q-63 0 -112.5 -56t-75 -139t-25.5 -159q0 -61 17 -100q-74 0 -108 38.5t-34 102.5q0 84 54.5 171t143.5 143.5t187 56.5q113 0 165 -81t64.5 -207t14.5 -356 q2 -41 2 -126q324 449 455 774q16 -12 31.5 -42t15.5 -57q0 -78 -140.5 -293t-359.5 -495q20 -694 193 -694q57 0 142 110.5t206 323.5l24 -21q-127 -260 -220 -374.5t-208 -114.5q-152 0 -210 165t-74 419q-178 -219 -340 -399.5t-232 -235.5z" />
<glyph unicode="Y" horiz-adv-x="1363" d="M47 1104q0 86 54.5 172t144.5 142.5t192 56.5q109 0 161 -61.5t52 -145.5q0 -47 -14 -109.5t-45 -173.5q-39 -139 -58.5 -229t-19.5 -168q0 -197 143 -197q129 0 240 147.5t195 362.5q63 260 123.5 417t121.5 157q20 0 53 -18.5t62 -47.5q-74 -117 -116 -217t-86 -260 t-136 -535q-59 -238 -118.5 -395.5t-175 -271t-298.5 -113.5q-123 0 -202.5 51t-79.5 142q0 113 122 153q-16 -55 -16 -110q0 -86 45 -135.5t133 -49.5q180 0 279.5 177.5t148.5 402.5q6 27 33 162q10 51 23.5 115.5t29.5 142.5q-88 -170 -196.5 -264.5t-247.5 -94.5 q-117 0 -170 64.5t-53 179.5q0 74 18.5 162t54.5 215q35 125 50.5 196.5t15.5 130.5q0 72 -27.5 116t-89.5 44q-70 0 -120 -57t-75.5 -140t-25.5 -157q0 -61 16 -100q-74 0 -107.5 38.5t-33.5 102.5z" />
<glyph unicode="Z" horiz-adv-x="1292" d="M-51 53q0 47 38 77t119 30q98 0 279 -54q180 190 399 551q-123 -2 -266 -22l-69 -10q4 80 84.5 111.5t220.5 31.5q31 0 92 -4q168 299 239 485q-51 12 -170 60q-129 51 -224 79.5t-175 28.5q-231 0 -231 -295q0 -45 8 -71q-57 10 -84 47t-27 100q0 135 104.5 206 t291.5 71q102 0 193 -18.5t212 -53.5q102 -31 169 -45.5t134 -14.5q45 0 66 5q-55 -47 -103 -72q-98 -236 -266 -524l59 -7q115 -12 158 -12q-23 -33 -49.5 -47t-71.5 -18t-149 -6q-229 -375 -447 -584q182 -57 296 -86t206 -29q82 0 145 33q-33 -92 -86 -133t-129 -41 q-84 0 -186 38t-262 113l-68 31q-147 -115 -262 -115q-84 0 -136 51.5t-52 112.5zM2 57q0 -39 36 -75.5t89 -36.5q75 0 188 96q-158 65 -235 65h-2q-76 0 -76 -49z" />
<glyph unicode="[" horiz-adv-x="804" d="M59 -137q10 18 25.5 79.5t67 336t137.5 741.5q43 233 115.5 326.5t150.5 93.5l55 -2q57 -4 92 -4q133 0 205 41q-6 -102 -60 -133t-155 -31q-47 0 -149 20q-18 4 -70 15q-47 -137 -91 -351.5t-110 -574.5q-68 -385 -96 -486q231 2 314 8.5t178 34.5q-8 -80 -72 -117.5 t-195 -37.5q-86 0 -185 13t-157 28z" />
<glyph unicode="\" horiz-adv-x="1146" d="M336 1475q45 0 79 -29t46 -64q45 -117 94 -330.5t117 -553.5q80 -399 130 -602t89 -228q-88 17 -148.5 103t-111.5 274q-25 94 -71 324.5t-91 464.5q-41 219 -80 410.5t-53 230.5z" />
<glyph unicode="]" horiz-adv-x="839" d="M-29 -180q6 76 64.5 109.5t150.5 33.5q35 0 93.5 -4t87.5 -6l73 -6q49 141 100.5 380.5t118.5 596.5q61 328 93 456h-129q-123 0 -218.5 -8t-189.5 -35q0 82 64.5 110t199.5 28q147 0 342 -43l-37 -226q-121 -758 -157 -936q-20 -106 -46 -190t-79 -154.5t-137 -70.5 q-137 0 -231.5 -6.5t-162.5 -28.5z" />
<glyph unicode="^" horiz-adv-x="415" d="M0 942q0 37 45 79t102.5 71.5t85.5 29.5q33 0 77 -39t76 -92t32 -96q0 -45 -35 -64q-27 54 -61.5 95t-90.5 94q-70 -25 -119 -51.5t-92 -65.5q-20 12 -20 39z" />
<glyph unicode="_" horiz-adv-x="1730" d="M-41 -135q10 96 195.5 132t525.5 36q236 0 473 -21q193 -16 313 -16q-133 -92 -333 -92q-248 0 -345 -2q-381 0 -499.5 -5.5t-329.5 -31.5z" />
<glyph unicode="`" horiz-adv-x="256" d="M0 1065q6 63 45 63q37 0 87 -49t88 -111.5t38 -86.5q0 -12 -7 -29.5t-21 -24.5q-78 107 -230 238z" />
<glyph unicode="a" horiz-adv-x="892" d="M-53 74q0 121 87 270.5t220 253.5t260 104q80 0 133 -43t53 -110q0 -47 -26.5 -67.5t-73.5 -20.5q10 37 10 71q0 51 -24.5 83t-75.5 32q-90 0 -189.5 -100.5t-166 -239.5t-66.5 -239q0 -80 55 -80q82 0 192.5 130t237.5 316q27 -4 54.5 -17.5t27.5 -33.5q0 -16 -19.5 -52 t-23.5 -42q-35 -59 -55 -105.5t-20 -85.5q0 -35 17 -62.5t52 -27.5q59 0 149.5 85t178.5 239l20 -21q-43 -109 -110.5 -193.5t-145 -131.5t-149.5 -47t-110 42t-38 101q0 27 7 59q-92 -123 -165 -180t-145 -57q-67 0 -109 44t-42 126z" />
<glyph unicode="b" horiz-adv-x="806" d="M-20 109q0 195 122.5 520t277.5 579t236 254q31 0 48.5 -40t17.5 -89q0 -96 -67.5 -255.5t-176 -307t-223.5 -217.5q-27 -49 -62.5 -184.5t-35.5 -247.5q0 -193 112 -193q59 0 123 48.5t103 123.5q-72 37 -111 110t-39 155q0 96 50.5 156.5t121.5 60.5q59 0 94 -49.5 t35 -139.5q0 -135 -71 -278q25 -6 53 -6q96 0 154.5 61t107.5 162l24 -27q-53 -131 -127.5 -182t-164.5 -51q-35 0 -66 6q-61 -102 -143 -165t-183 -63q-104 0 -157 69t-53 190zM238 633q88 69 175 201.5t143 262.5t56 183q0 16 -8 16q-23 0 -95.5 -104.5t-150 -259 t-120.5 -299.5zM377 354q0 -61 24.5 -120.5t73.5 -92.5q47 101 47 207q0 70 -19.5 112t-47.5 42q-31 0 -54.5 -43t-23.5 -105z" />
<glyph unicode="c" horiz-adv-x="661" d="M-10 147q0 133 67.5 260.5t173 206t207.5 78.5q78 0 112 -44t34 -107q0 -61 -28 -105.5t-75 -44.5q-35 0 -59 31q31 14 53.5 64.5t22.5 97.5q0 27 -10.5 39t-34.5 12q-70 0 -149 -83t-133 -202t-54 -217q0 -74 34.5 -122t114.5 -48q125 0 247 102.5t187 268.5l27 -21 q-47 -123 -129 -220t-181.5 -152.5t-197.5 -55.5q-102 0 -165.5 67.5t-63.5 194.5z" />
<glyph unicode="d" horiz-adv-x="968" d="M-33 111q0 113 86 263t215 256.5t250 106.5q90 0 90 -63q0 -8 -4 -29q-20 31 -78 31q-102 0 -198.5 -97.5t-156.5 -228.5t-60 -215q0 -45 19.5 -71.5t53.5 -26.5q55 0 135 70.5t162 199.5t146 293q160 414 267 644.5t181 230.5q16 0 28.5 -13.5t12.5 -34.5 q0 -31 -32.5 -105.5t-106.5 -229.5q-152 -315 -242 -546t-90 -403q0 -68 7 -91t40 -23q43 0 101.5 37.5t116 106.5t98.5 159l24 -19q-39 -102 -106.5 -186t-144 -132t-146.5 -48t-102.5 45t-32.5 108q0 70 39 219q-104 -172 -216 -276t-202 -104q-60 0 -107 44t-47 128z" />
<glyph unicode="e" horiz-adv-x="681" d="M-29 147q0 121 80 260.5t202 234.5t239 95q126 0 126 -123q0 -102 -75.5 -189t-194.5 -142.5t-237 -67.5q-8 -35 -9 -74q0 -74 37 -123t125 -49q125 0 252 104.5t207 258.5l25 -19q-82 -182 -227.5 -292.5t-299.5 -110.5q-121 0 -185.5 66.5t-64.5 170.5zM121 254 q86 31 180 86t160.5 130t66.5 157q0 25 -9 36t-34 11q-63 0 -138 -63.5t-137.5 -162t-88.5 -194.5z" />
<glyph unicode="f" horiz-adv-x="638" d="M-139 -393q0 215 153.5 676.5t359.5 826.5t363 365q39 0 54.5 -24t15.5 -67q0 -113 -80 -256t-207 -280t-260 -230q-14 -33 -39 -102q20 -4 33.5 -23.5t17.5 -41.5q16 -115 33 -178.5t50.5 -102.5t95.5 -39q68 0 115.5 47t111.5 154l31 -21q-49 -115 -125 -174t-144 -59 q-37 0 -76.5 18.5t-74.5 48.5q0 -168 -47 -335.5t-120 -275t-149 -107.5q-43 0 -77.5 39.5t-34.5 140.5zM-12 -377q0 -47 10 -72.5t29 -25.5q36 0 86.5 104.5t86.5 246.5t36 247q0 61 -15.5 112.5t-54.5 126.5q-80 -236 -129 -436t-49 -303zM293 702q125 115 224 240 t154.5 224.5t55.5 142.5q0 29 -29 28q-76 0 -184 -177t-221 -458z" />
<glyph unicode="g" horiz-adv-x="796" d="M-41 -455q0 76 59.5 140.5t136 110.5t203.5 110q57 147 105 338q-182 -262 -334 -262q-72 0 -113 54t-41 144q0 135 87.5 258t215.5 198t240 75q55 0 83 -18.5t28 -47.5q0 -16 -9.5 -27.5t-15.5 -13.5q-20 31 -82 31q-102 0 -197.5 -78t-154.5 -188.5t-59 -198.5 q0 -49 19.5 -74.5t51.5 -25.5q55 0 138 75.5t165 194.5l25 109q8 39 33.5 71.5t70.5 32.5q18 0 43 -6q0 -55 -45 -222t-112 -339q106 51 197 142t137 204l26 -21q-43 -125 -154.5 -227t-228.5 -158q-96 -233 -194.5 -366t-204.5 -133q-49 0 -84 29.5t-35 88.5zM23 -436 q0 -33 13 -52.5t36 -19.5q47 0 117.5 89t146.5 269q-150 -76 -231.5 -141t-81.5 -145z" />
<glyph unicode="h" horiz-adv-x="974" d="M12 135q0 188 116 508t263.5 569.5t233.5 249.5q33 0 50 -40t17 -89q0 -96 -68.5 -255.5t-178 -307t-224.5 -217.5q-37 -86 -56.5 -199.5t-19.5 -203.5q0 -33 5 -70q82 238 185 384t230 146q78 0 117 -54t39 -130q0 -45 -11.5 -86t-35.5 -107q-20 -55 -30.5 -87.5 t-10.5 -63.5q0 -39 16.5 -58.5t44.5 -19.5q70 0 164 97.5t156 230.5l26 -25q-68 -156 -173 -256t-220 -100q-68 0 -104.5 36t-36.5 93q0 45 31 145q32 108 32 161q0 54 -21.5 77.5t-55.5 23.5q-76 0 -132.5 -89t-121.5 -251q-49 -119 -78 -172t-64 -53q-37 0 -60.5 63.5 t-23.5 149.5zM248 633q88 69 175 201.5t143.5 262.5t56.5 183q0 16 -9 16q-23 0 -93 -101t-148 -255t-125 -307z" />
<glyph unicode="i" horiz-adv-x="493" d="M-10 119q0 80 46 221t114.5 247.5t134.5 106.5q18 0 31.5 -12t13.5 -33q0 -29 -66 -137q-68 -113 -107.5 -202t-39.5 -169q0 -72 23.5 -97.5t76.5 -25.5q160 0 315 314l19 -21q-57 -172 -169 -268t-235 -96q-75 0 -116 48t-41 124zM309 952q0 41 49.5 74t100.5 33 q67 0 67 -62q0 -41 -42 -76.5t-91 -35.5q-37 0 -60.5 17.5t-23.5 49.5z" />
<glyph unicode="j" horiz-adv-x="446" d="M-393 -469q0 76 72.5 166t185.5 153q31 18 80 41q31 12 51 25q88 219 137 504q-12 -23 -67 -115q-20 -31 -29 -47l-19 31q37 70 88 203q45 115 74 167t64 52q23 0 36 -17.5t13 -44.5q0 -55 -48 -260t-116 -405l37 22q109 61 179.5 124t139.5 192l27 -15 q-59 -137 -142 -209.5t-204 -138.5l-57 -33q-80 -217 -180.5 -358t-215.5 -141q-51 0 -78.5 28.5t-27.5 75.5zM-340 -455q0 -49 35 -49q45 0 123 94.5t151 259.5q-150 -74 -229.5 -155.5t-79.5 -149.5zM195 961q0 43 48 75.5t101 32.5q31 0 49.5 -14.5t18.5 -42.5 q0 -45 -42 -81t-94 -36q-34 0 -57.5 17.5t-23.5 48.5z" />
<glyph unicode="k" horiz-adv-x="913" d="M8 129q0 201 122 518.5t274.5 566t224.5 248.5q27 0 45 -39t18 -94q0 -94 -54 -215t-150.5 -233.5t-213.5 -182.5q-66 -160 -100.5 -317.5t-34.5 -267.5q90 227 207 400t252 173q76 0 129 -53t53 -129q0 -80 -52 -134.5t-120.5 -80t-118.5 -25.5q10 -76 50.5 -170 t109.5 -94q154 0 303 334l21 -21q-29 -100 -88.5 -190t-133 -145.5t-143.5 -55.5q-71 0 -118.5 61.5t-69 147.5t-21.5 160q39 0 101.5 22.5t112 66.5t49.5 107q0 41 -31 67t-72 26q-131 0 -224 -168t-163 -379l-22 -60q-10 -18 -30 -27t-40 -9q-47 0 -59.5 49t-12.5 143z M309 780q90 72 162 168t112 186.5t40 143.5q0 18 -7 18q-31 0 -125 -156.5t-182 -359.5z" />
<glyph unicode="l" horiz-adv-x="483" d="M6 150q0 184 127 500.5t283.5 570.5t226.5 254q29 0 48.5 -50.5t19.5 -101.5q0 -94 -77 -277.5t-202 -372t-266 -304.5q-27 -119 -27 -207q0 -158 90 -158q76 0 155 96.5t140 231.5l31 -17q-176 -376 -384 -376h-1q-84 0 -124 57t-40 154zM184 438q113 113 220.5 284 t175 327.5t67.5 226.5q0 33 -14 33q-29 0 -118 -140.5t-183 -343t-148 -387.5z" />
<glyph unicode="m" horiz-adv-x="1323" d="M-72 -12q0 6 29 96q47 137 79 252t34 199q14 16 40.5 29.5t53.5 13.5q55 0 55 -54q0 -55 -53 -233q100 160 216 274.5t216 114.5q59 0 85 -43t26 -113t-20.5 -151.5t-43.5 -136.5q78 141 162 228t178 87q61 0 89 -37t28 -94q0 -39 -10.5 -83t-30.5 -108 q-35 -109 -35 -151q0 -70 61 -70q76 0 143.5 93.5t131.5 230.5l24 -29q-57 -152 -149 -259t-205 -107q-67 0 -102 41.5t-35 107.5q0 55 33 162q10 35 19 69.5t9 59.5q0 37 -17 55.5t-42 18.5q-47 0 -101.5 -67t-166.5 -239q-29 -45 -80 -151l-19 -39q-33 0 -68.5 11 t-35.5 30q0 14 35 108q43 127 68.5 214.5t25.5 148.5q0 78 -51 78q-57 0 -148.5 -92.5t-179.5 -232.5t-137 -275q-31 0 -71 14t-40 29z" />
<glyph unicode="n" horiz-adv-x="954" d="M-78 14q0 10 27 74q51 131 84 238.5t35 191.5q14 16 40.5 29.5t53.5 13.5q55 0 55 -53q0 -31 -18.5 -107.5t-46.5 -162.5q98 152 208.5 256t217.5 104q76 0 113.5 -54.5t37.5 -129.5q0 -45 -11 -86t-34 -95q-18 -45 -28.5 -77.5t-10.5 -65.5q0 -78 62 -78 q70 0 144.5 92.5t141.5 227.5l23 -27q-147 -346 -354 -346q-70 0 -107 36t-37 95q0 27 9.5 62.5t19.5 70.5q12 37 21.5 78t9.5 74q0 100 -82 100q-78 0 -163 -82t-151.5 -182t-150.5 -242q-35 0 -63.5 11.5t-45.5 33.5z" />
<glyph unicode="o" horiz-adv-x="747" d="M-20 121q0 84 34.5 176t90 153.5t110.5 61.5q18 0 43 -10q-25 -20 -59.5 -90t-60 -149t-25.5 -128q0 -117 73 -117q43 0 102.5 45.5t117.5 118.5q-57 47 -89 123t-32 158q0 106 54 182t146 76q78 0 110 -42t32 -116q0 -78 -38 -175t-100 -189q37 -20 78 -21q59 0 123 36 t96 112l25 -21q-39 -90 -110.5 -133t-147.5 -43q-55 0 -98 21q-74 -96 -157 -156t-157 -60q-84 0 -122.5 51.5t-38.5 135.5zM373 457q0 -63 17.5 -122t51.5 -99q54 79 86.5 162t32.5 153q0 57 -17.5 86t-43.5 29q-29 0 -58.5 -28t-49 -76t-19.5 -105z" />
<glyph unicode="p" horiz-adv-x="800" d="M-193 -496q29 98 70 217q45 131 76 240t64.5 294t68.5 474q2 20 9 27.5t30 7.5q49 0 73.5 -27.5t24.5 -66.5q0 -57 -47 -277q63 123 154.5 212t199.5 89q90 0 148.5 -64.5t58.5 -168.5q0 -109 -63.5 -230.5t-175 -202.5t-244.5 -81q-51 0 -85 11t-34 26q0 6 15.5 8 t35.5 2q106 0 202.5 67.5t156 172t59.5 208.5q0 70 -29.5 114t-87.5 44q-66 0 -134 -54t-122.5 -131t-83.5 -145q-76 -324 -146.5 -562t-104.5 -271q-10 -10 -25 -10q-16 0 -30.5 16t-25 36.5t-8.5 24.5z" />
<glyph unicode="q" horiz-adv-x="821" d="M-31 115q0 119 87 265t221.5 248.5t265.5 102.5q70 0 116 -28.5t46 -71.5q0 -29 -18.5 -52.5t-49.5 -23.5q0 49 -28.5 81t-88.5 32q-104 0 -198.5 -95.5t-151.5 -224.5t-57 -213q0 -45 19.5 -71.5t51.5 -26.5q72 0 163 113.5t220 320.5q39 63 90 64q41 0 41 -37 q0 -18 -14 -48t-33 -65q-45 -80 -77.5 -153.5t-55.5 -172.5q98 8 183 69.5t159 201.5l25 -23q-63 -143 -162.5 -215t-208.5 -82q35 -111 35 -231q0 -94 -20.5 -175t-54.5 -129t-77 -48h-1q-70 0 -70 149q0 111 33.5 293t86.5 332q-86 -123 -168.5 -192.5t-154.5 -69.5 q-59 0 -106.5 44t-47.5 132zM436 -403q0 -57 17 -58q22 0 36.5 81t14.5 177q0 84 -15 154q-25 -104 -39 -200.5t-14 -153.5z" />
<glyph unicode="r" horiz-adv-x="712" d="M2 260q98 190 166 389q-20 20 -21 49q0 37 15.5 70t37 51.5t33.5 18.5q29 0 29 -50q0 -8 -10 -36.5t-12 -38.5q0 -20 17 -38t56 -44q63 -45 99.5 -89t36.5 -114q0 -45 -14.5 -89t-43.5 -116q-45 -98 -45 -141q0 -61 62 -62q61 0 131.5 49.5t130 122t86.5 134.5l26 -21 q-63 -141 -184 -249.5t-244 -108.5q-69 0 -109 36.5t-40 96.5q0 70 59 201q27 68 40 107.5t13 74.5q0 51 -23.5 80.5t-52 49t-38.5 25.5q-45 -115 -96.5 -224t-86.5 -169z" />
<glyph unicode="s" horiz-adv-x="706" d="M-41 164q0 82 28.5 115.5t62.5 48t40 20.5q131 143 203 297v25q0 70 23.5 104.5t56.5 34.5q16 0 24.5 -7t8.5 -20q0 -8 -6.5 -33.5t-6.5 -56.5q0 -41 11.5 -87t35.5 -120q29 -88 44.5 -153.5t15.5 -132.5q0 -53 -13 -101q74 12 137.5 66.5t120.5 165.5l19 -21 q-37 -106 -113 -167.5t-174 -75.5q-31 -84 -100.5 -127t-161.5 -43q-133 0 -194.5 79.5t-61.5 188.5zM51 166q0 -78 46 -138.5t122 -60.5q94 1 129 101q-82 16 -149.5 64t-102.5 106q-45 -2 -45 -72zM104 301q33 -72 99.5 -127t154.5 -74q9 54 9 97q0 61 -10.5 122.5 t-30.5 141.5q-18 82 -23 106q-104 -172 -199 -266z" />
<glyph unicode="t" horiz-adv-x="583" d="M-8 109q0 88 31.5 218t87.5 275q-49 8 -74 16v37q74 -8 90 -8q90 233 193.5 404.5t162.5 171.5q16 0 29.5 -12.5t13.5 -32.5q0 -27 -25.5 -78t-86.5 -158q-10 -20 -63.5 -113.5t-96.5 -187.5h76q170 0 293 12v-37q-214 -24 -350 -24h-11h-31q-112 -256 -112 -444 q0 -91 26.5 -128.5t87.5 -37.5q104 0 207 93t183 257l26 -21q-76 -178 -205 -291.5t-270 -113.5q-182 0 -182 203z" />
<glyph unicode="u" horiz-adv-x="897" d="M0 145q0 76 31.5 187.5t76 194.5t72.5 83q12 0 36 -12t40 -29q-43 -68 -90 -193.5t-47 -217.5q0 -47 15.5 -92.5t58.5 -45.5q72 0 156.5 132.5t182.5 334.5l33 68q98 -18 99 -53q0 -4 -9.5 -27.5t-17.5 -42.5q-47 -104 -79 -195.5t-32 -154.5q0 -82 68 -82q45 0 106.5 40 t125 115.5t110.5 176.5l27 -19q-43 -109 -112 -193.5t-148.5 -132.5t-151.5 -48q-143 0 -143 151q0 41 14 103q-66 -117 -131.5 -185.5t-136.5 -68.5q-68 0 -111 60t-43 146z" />
<glyph unicode="v" horiz-adv-x="833" d="M20 145q0 39 13 269q4 61 14 78.5t51 17.5q35 0 44.5 -13.5t9.5 -52.5q0 -41 -9 -151q-10 -98 -10 -178q0 -61 10.5 -88t36.5 -27q68 0 164 138t174 311q4 129 27.5 180t66.5 51q35 0 54.5 -25.5t19.5 -52.5q0 -20 -20 -57q-25 -47 -38.5 -93t-13.5 -124q0 -68 19.5 -112 t77.5 -44q45 0 84 35t77 117l27 -21q-74 -172 -203 -172q-70 0 -113.5 50t-58.5 149q-84 -168 -191.5 -289t-199.5 -121q-61 0 -87 58.5t-26 166.5z" />
<glyph unicode="w" horiz-adv-x="1263" d="M0 145q0 76 31.5 187.5t76 194.5t72.5 83q16 0 46 -12t30 -29q-43 -66 -90 -193.5t-47 -217.5q0 -47 14 -92.5t57 -45.5q63 0 141.5 110t166.5 282q16 86 27.5 123.5t22.5 49t32 11.5q27 0 43 -11.5t17 -33.5q0 -6 -5 -23q-23 -76 -40 -200.5t-17 -227.5q0 -100 45 -100 q57 0 149 128t168 292q0 260 102 260q35 0 54.5 -25.5t19.5 -52.5q0 -20 -20 -57q-25 -47 -38.5 -93t-13.5 -124q0 -68 19.5 -112t77.5 -44q45 0 84 35t78 117l26 -21q-74 -172 -203 -172q-63 0 -107 43t-65 129q-86 -160 -187 -271.5t-189 -111.5q-111 0 -111 199 q0 74 14 184q-82 -164 -162.5 -264t-164.5 -100q-66 0 -110 60t-44 146z" />
<glyph unicode="x" horiz-adv-x="856" d="M20 297l43 90q37 84 66 133t75 83t111 34q74 0 114 -51t56 -144q102 106 177 172t102 66q12 0 31.5 -6t19.5 -17q-33 0 -119 -81.5t-198 -213.5l6 -81q10 -133 28.5 -197t75.5 -64q70 0 155 100.5t134 209.5l21 -21q-31 -90 -89.5 -174t-130 -136t-141.5 -52 q-82 0 -120 74.5t-54 205.5q-133 -160 -268 -333q-12 -14 -25 -15q-20 0 -20 31q0 33 88 150.5t215 258.5q-14 123 -30.5 180.5t-59.5 57.5q-57 0 -98.5 -52t-106.5 -169l-39 -72z" />
<glyph unicode="y" horiz-adv-x="796" d="M-41 -465q0 82 52 144.5t128 108.5t217 118q61 158 115 375q-74 -121 -147.5 -191t-151.5 -70q-66 0 -115 43t-49 123q0 74 33 180.5t76 186.5t71 80q18 0 54.5 -15.5t36.5 -31.5q-41 -59 -88.5 -191.5t-47.5 -210.5q0 -82 74 -82q55 0 130 76t142 187q10 35 21 94 q8 39 33.5 71.5t70.5 32.5q18 0 43 -6q0 -55 -46 -227t-113 -346q102 41 192 128t146 220l26 -21q-76 -240 -387 -383q-90 -221 -189.5 -361t-197.5 -140q-55 0 -92 28.5t-37 79.5zM23 -446q0 -20 14 -41t41 -21q22 0 63 38t92.5 120t102.5 207q-109 -57 -171.5 -97.5 t-102 -91.5t-39.5 -114z" />
<glyph unicode="z" horiz-adv-x="649" d="M-145 -469q0 63 45 120.5t112.5 105.5t186.5 120q86 49 157 98q0 76 -31.5 137.5t-109.5 123.5q68 18 119 69t77.5 113.5t26.5 118.5q0 47 -20.5 77.5t-59.5 30.5q-63 0 -115.5 -47t-93 -119.5t-102.5 -204.5l-24 21q53 141 100 231t111.5 143.5t152.5 53.5q72 0 121 -46 t49 -122q0 -104 -69.5 -190t-172.5 -138q106 -82 144 -184q176 133 227 289l23 -25q-51 -162 -238 -303q8 -27 8 -67q0 -121 -70.5 -241t-184 -194.5t-234.5 -74.5q-135 0 -135 104zM-88 -446q0 -35 17.5 -51.5t45.5 -16.5q56 0 142 55.5t155.5 155.5t81.5 231 q-90 -57 -135 -82q-111 -66 -169 -106.5t-98 -87.5t-40 -98z" />
<glyph unicode="{" horiz-adv-x="532" d="M76 -43q0 45 17.5 98.5t53.5 143.5q41 100 60.5 161.5t19.5 116.5q0 70 -15 118t-58 83q70 6 105.5 62.5t49 134t23.5 204.5q10 135 24.5 212t53.5 130.5t112 53.5q45 0 76 -26t37 -83q-6 4 -28.5 16.5t-39.5 12.5q-57 0 -81.5 -85t-45.5 -255q-23 -186 -52.5 -284.5 t-98.5 -104.5q29 -31 41 -63t12 -79q0 -94 -23.5 -175t-66.5 -181q-33 -78 -49.5 -129t-16.5 -100q0 -66 68 -66q31 0 51 16q-2 -35 -29.5 -51t-66.5 -16q-72 0 -102.5 38t-30.5 97z" />
<glyph unicode="|" horiz-adv-x="530" d="M113 -270q47 125 78.5 399t68.5 702q20 256 35.5 399.5t30.5 196.5q31 -14 44 -47.5t13 -68.5q0 -176 -23.5 -595t-44.5 -610q-18 -186 -66 -281t-136 -95z" />
<glyph unicode="}" horiz-adv-x="524" d="M-43 -70q37 -25 70 -24q55 0 82.5 93t50.5 265q20 180 53 294t106 153q-51 57 -51 147q0 66 21.5 136.5t62.5 176.5q31 78 46.5 125t15.5 80q0 31 -15 31q-12 0 -36.5 -8t-47.5 -27q8 43 53.5 73t86.5 30q39 0 60.5 -20.5t21.5 -49.5q0 -27 -13.5 -66t-44.5 -110 q-45 -106 -69.5 -187t-24.5 -153q0 -68 14.5 -117t57.5 -78q-72 -18 -111 -84.5t-54.5 -153.5t-25.5 -225q-12 -139 -26.5 -219t-53.5 -135t-112 -55q-45 0 -78 25.5t-39 82.5z" />
<glyph unicode="~" horiz-adv-x="890" d="M82 328q72 94 170 94q35 0 70.5 -9.5t101.5 -31.5q80 -27 126 -38t99 -11q31 0 62 6q-66 -74 -160 -74q-39 0 -80 10.5t-98 28.5q-61 20 -106.5 30.5t-90.5 10.5q-53 0 -94 -16z" />
<glyph unicode="&#xa1;" horiz-adv-x="540" d="M-162 -465q0 53 116 303t263.5 527.5t222.5 386.5q0 -63 -30.5 -159.5t-81.5 -230.5q-160 -414 -267.5 -644t-181.5 -230q-16 0 -28.5 13.5t-12.5 33.5zM393 893q0 31 34 60.5t73 29.5q29 0 47 -14.5t18 -40.5q0 -33 -39 -58.5t-80 -25.5q-53 0 -53 49z" />
<glyph unicode="&#xa2;" horiz-adv-x="825" d="M106 496q0 115 60.5 228.5t156 195t193.5 108.5q45 211 66 354q6 35 25.5 57.5t66.5 35.5l-82 -435q80 0 114.5 -44t34.5 -107q0 -61 -27.5 -105.5t-74.5 -44.5q-35 0 -59 31q31 14 53 64.5t22 97.5q0 27 -10 39t-35 12q-20 0 -30 -2q-80 -430 -129 -664q139 25 247 121 l35 -32q-59 -57 -139 -99.5t-158 -60.5q-47 -209 -83 -327t-87 -184.5t-127 -66.5q70 78 195 565q-102 0 -165 68t-63 195zM233 481q0 -68 28 -115t93 -55q68 264 148 641q-72 -39 -133.5 -119.5t-98.5 -176t-37 -175.5z" />
<glyph unicode="&#xa3;" horiz-adv-x="1331" d="M-43 70q0 41 36 65.5t113 24.5q90 0 252 -43q66 111 148 360q-117 -2 -252 -24q12 57 90 88.5t197 40.5l73 237q-94 31 -148 90.5t-54 128.5q0 59 35.5 110.5t91.5 51.5q-14 -18 -20.5 -55t-6.5 -72q0 -76 31.5 -129t85.5 -82q94 289 196.5 451t243.5 162 q76 0 137.5 -49.5t61.5 -159.5q0 -102 -55.5 -212t-167 -184.5t-269.5 -74.5h-33q-41 -123 -73 -213q74 -2 227 -21q61 -8 109 -12q-23 -33 -61 -47.5t-106.5 -18.5t-205.5 -4q-96 -256 -184 -389q16 -6 34.5 -11t36.5 -11q174 -53 278.5 -79t192.5 -26q82 0 146 33 q-33 -92 -86.5 -133t-128.5 -41q-80 0 -175.5 34.5t-250.5 106.5l-107 49q-109 -121 -227 -121q-61 0 -108.5 29t-72 71t-24.5 79zM10 68q0 -39 42 -78t102 -39q85 0 157 94q-152 61 -233 61q-68 0 -68 -38zM756 834q115 0 207 83.5t143 199.5t51 204q0 55 -20.5 78.5 t-53.5 23.5q-86 0 -157.5 -146.5t-169.5 -442.5z" />
<glyph unicode="&#xa4;" horiz-adv-x="1427" d="M170 88q25 25 74 59q70 51 121 98.5t104 123.5q-18 55 -18 137q0 86 24.5 182t69.5 180q-150 162 -242 246q-16 14 -26.5 49t-10.5 74t13 70q57 -55 321 -346q55 74 123 115.5t143 41.5q72 0 126.5 -37t84.5 -102q31 37 72 96q39 57 66.5 87t68.5 49.5t100 19.5 q12 0 37 -4q-27 -39 -247 -293l-68 -80l2 -33q0 -88 -29.5 -191.5t-81.5 -195.5q233 -219 234 -348q0 -25 -4 -37q-17 29 -50.5 65t-95.5 93q-88 84 -141 139q-119 -150 -254 -149q-111 0 -170 82q-88 -98 -177 -144.5t-169 -46.5zM567 485q0 -76 43 -128t92 -52 q68 0 136.5 88t114.5 216t46 235q0 72 -40.5 122t-92.5 50q-78 0 -147.5 -91t-110.5 -218t-41 -222z" />
<glyph unicode="&#xa5;" horiz-adv-x="1658" d="M225 1104q0 86 54.5 172t144.5 142.5t192 56.5q109 0 161 -61.5t52 -145.5q0 -47 -14 -109.5t-45 -173.5q-39 -139 -58.5 -229t-19.5 -168q0 -197 144 -197q129 0 239.5 147.5t194.5 362.5q63 260 123.5 417t122.5 157q20 0 53 -18.5t61 -47.5q-74 -117 -115.5 -217 t-86 -260t-136.5 -535l-14 -55q-8 -37 -29 -111q119 -6 209 -14q-82 -59 -211 -59h-18q-20 -66 -45 -129q98 -2 274 -17q-82 -59 -211 -59h-96q-74 -158 -181.5 -247t-269.5 -89q-122 0 -202 51t-80 142q0 113 123 153q-16 -55 -17 -110q0 -86 45 -135.5t133 -49.5 q205 0 334 285q-174 0 -309 -23q20 53 107.5 75t232.5 26q14 35 41 127h-10q-225 0 -371 -23q20 57 120.5 79t266.5 22h12l4 12q6 27 33 162q10 51 23.5 115.5t30.5 142.5q-88 -170 -197 -264.5t-248 -94.5q-117 0 -170 64.5t-53 179.5q0 74 18.5 162t55.5 215 q35 125 50 196.5t15 130.5q0 72 -27.5 116t-89.5 44q-70 0 -120 -57t-75.5 -140t-25.5 -157q0 -61 17 -100q-74 0 -108 38.5t-34 102.5z" />
<glyph unicode="&#xa6;" horiz-adv-x="532" d="M113 -270q32 86 58 256t50 417q16 16 42 28.5t52 12.5q25 0 25 -47q-16 -244 -36.5 -380t-64.5 -211.5t-126 -75.5zM240 606l20 232q20 252 35.5 394t30.5 195q31 -14 44 -47.5t13 -68.5q0 -33 -8 -176q-12 -205 -13 -353q0 -29 -15 -69.5t-50 -65.5z" />
<glyph unicode="&#xa7;" horiz-adv-x="851" d="M14 57q0 92 50.5 133t115.5 41q-35 -37 -53 -83t-18 -91q0 -78 51 -131t149 -53q96 0 170 51t74 139q0 72 -46 121t-140 113q-72 49 -115 87t-74 90t-31 120q0 74 38 139.5t112 106.5t178 41q33 0 49 -2q-106 59 -159.5 110t-53.5 135q0 74 48.5 156t131 137.5 t185.5 55.5q145 0 145 -130q0 -66 -30.5 -146.5t-69.5 -141.5q-43 8 -43 55q0 25 11 62.5t26 74.5q39 94 39 139q0 29 -16.5 42.5t-55.5 13.5q-78 0 -144.5 -47t-105.5 -117t-39 -127t36 -94t114 -84q70 -45 112.5 -80t73.5 -94.5t31 -143.5q0 -131 -75 -197.5t-206 -66.5 q-33 0 -49 4t-39 15q-20 10 -51 20q14 -16 44 -33.5t38 -21.5q102 -59 161.5 -118.5t59.5 -154.5q0 -82 -53 -146.5t-136 -99t-167 -34.5q-115 0 -194 61.5t-79 173.5zM262 635q0 -61 37 -111.5t150 -50.5q94 0 144 45t50 129q0 80 -45 127t-133 47q-86 0 -144.5 -46 t-58.5 -140z" />
<glyph unicode="&#xa8;" horiz-adv-x="489" d="M0 942q0 37 44 66.5t91 29.5q61 0 61 -57q0 -35 -37.5 -67.5t-82.5 -32.5q-33 0 -54.5 15t-21.5 46zM295 899q0 37 44 66.5t91 29.5q61 0 61 -57q0 -35 -37.5 -67.5t-83.5 -32.5q-32 0 -53.5 15t-21.5 46z" />
<glyph unicode="&#xa9;" d="M162 733q0 172 76.5 294t193.5 182.5t238 60.5t236.5 -60.5t189 -180.5t73.5 -288q0 -172 -76.5 -293.5t-193.5 -182t-237 -60.5q-121 0 -237 60.5t-189.5 180t-73.5 287.5zM219 733q0 -135 55.5 -242.5t156.5 -168t231 -60.5q129 0 231 60.5t160.5 170t58.5 248.5 q0 135 -55.5 243t-156.5 168t-230 60t-231.5 -60t-161 -170t-58.5 -249zM502 612v271q0 96 46 141t120 45q59 0 96 -24.5t54.5 -58.5t17.5 -62q0 -35 -31 -35q-18 0 -23.5 6t-7.5 18q-16 100 -104 101q-51 0 -79 -33t-28 -98v-271q0 -131 111 -131q51 0 75.5 36t24.5 65 q0 12 9.5 18t17.5 6q35 0 35 -28q-4 -66 -48.5 -108t-119.5 -42q-76 0 -121 45t-45 139z" />
<glyph unicode="&#xaa;" horiz-adv-x="784" d="M215 1036q0 84 61.5 188.5t154.5 177.5t181 73q55 0 92 -30t37 -77q0 -61 -69 -61q8 33 8 49q0 35 -17.5 58.5t-54.5 23.5q-63 0 -132.5 -71t-116 -169t-46.5 -168q0 -55 39 -55q92 0 301 313q57 -14 58 -37q0 -12 -13.5 -35.5t-17.5 -29.5q-53 -88 -53 -133 q0 -25 12 -44.5t37 -19.5q41 0 104.5 59.5t124.5 168.5l15 -15q-43 -115 -125 -188.5t-158 -73.5q-51 0 -78 29.5t-27 70.5q0 10 5 43q-63 -86 -113.5 -127t-101.5 -41q-48 0 -77.5 31t-29.5 90z" />
<glyph unicode="&#xab;" horiz-adv-x="892" d="M12 324q100 43 212 137t177 186q4 -8 7.5 -20.5t3.5 -24.5q0 -74 -100.5 -149.5t-245.5 -151.5q82 -59 143 -94t188 -84q-29 -33 -59 -33q-47 0 -121 41t-134 97.5t-71 95.5zM319 324q100 43 212 137t178 186q4 -8 7 -20.5t3 -24.5q0 -74 -100.5 -149.5t-245.5 -151.5 q82 -59 143.5 -94t188.5 -84q-29 -33 -60 -33q-47 0 -120.5 41t-134 97.5t-71.5 95.5z" />
<glyph unicode="&#xac;" horiz-adv-x="1366" d="M90 377q35 57 194.5 78.5t424.5 21.5q176 0 317 -6q10 63 57 107q2 -14 5.5 -41t7.5 -70q35 0 164 -8q-61 -29 -160 -47l2 -74q0 -117 -21.5 -186.5t-79.5 -83.5q15 65 19 114t4 133v88q-37 -4 -102 -4q-123 -2 -299 -2q-193 0 -291.5 -3t-241.5 -17z" />
<glyph unicode="&#xad;" horiz-adv-x="993" d="M72 295q20 57 120.5 78.5t266.5 21.5t344 -18q-49 -33 -132 -46.5t-286 -13.5q-102 0 -163.5 -4t-149.5 -18z" />
<glyph unicode="&#xae;" d="M162 733q0 172 76.5 294t193.5 182.5t238 60.5t236.5 -60.5t189 -180.5t73.5 -288q0 -172 -76.5 -293.5t-193.5 -182t-237 -60.5q-121 0 -237 60.5t-189.5 180t-73.5 287.5zM219 733q0 -135 55.5 -242.5t156.5 -168t231 -60.5q129 0 231 60.5t160.5 170t58.5 248.5 q0 135 -55.5 243t-156.5 168t-230 60t-231.5 -60t-161 -170t-58.5 -249zM514 459v581q0 10 9 18.5t22 8.5h129q78 0 127 -40t49 -132q0 -74 -34 -115t-89 -53l119 -254q4 -8 4 -14q0 -12 -7 -20.5t-22 -8.5q-20 0 -34.5 27.5t-16.5 31.5l-108 234h-84v-264q0 -12 -9.5 -20.5 t-21.5 -8.5t-22.5 8t-10.5 21zM578 776h96q113 0 112 119q0 117 -112 117h-96v-236z" />
<glyph unicode="&#xaf;" horiz-adv-x="833" d="M123 940q20 53 94 53q168 0 494 -96q-29 -41 -78 -41q-47 0 -133 14.5t-170 32.5q-162 33 -207 37z" />
<glyph unicode="&#xb0;" horiz-adv-x="542" d="M188 922q0 49 34 103t92.5 90t123.5 36q80 0 118 -30.5t38 -80.5q0 -49 -36 -103t-96.5 -90t-125.5 -36q-76 0 -112 30.5t-36 80.5zM254 922q0 -35 22.5 -55.5t69.5 -20.5q43 0 86 31.5t71.5 79t28.5 85.5q0 74 -94 74q-43 0 -86 -31.5t-70.5 -77.5t-27.5 -85z" />
<glyph unicode="&#xb1;" horiz-adv-x="919" d="M111 70q18 45 108 62.5t240 17.5q184 0 309 -15q-43 -27 -108.5 -37t-204.5 -10q-211 0 -344 -18zM111 489q16 41 92 58.5t200 21.5v82q0 104 54 168q14 -98 16 -250q145 -2 295 -14q-74 -49 -190 -49h-105q-4 -117 -23.5 -185.5t-66.5 -84.5q12 69 16 125.5t4 144.5 q-104 0 -158.5 -2t-133.5 -15z" />
<glyph unicode="&#xb2;" horiz-adv-x="727" d="M147 715q0 53 84 53q33 0 105 -14q100 88 183 241.5t83 280.5q0 70 -27.5 104.5t-72.5 34.5q-59 0 -95 -57.5t-36 -143.5q0 -33 14 -73h-16q-41 12 -59.5 32.5t-18.5 61.5q0 86 65.5 150.5t161.5 64.5q76 0 124 -54.5t48 -133.5q0 -129 -86 -276.5t-203 -244.5l17 -4 q139 -33 186 -32q33 0 90 36q-16 -61 -43.5 -89.5t-72.5 -28.5q-37 0 -85.5 15t-113.5 44l-39 16q-63 -43 -115 -43q-35 0 -56.5 16.5t-21.5 43.5zM195 713q0 -8 9 -14.5t19 -6.5q21 0 64 27q-37 14 -64 14q-14 0 -21 -6t-7 -14z" />
<glyph unicode="&#xb3;" horiz-adv-x="604" d="M166 793q0 43 24.5 77.5t67.5 34.5q16 0 29 -4q-16 -12 -25.5 -39.5t-9.5 -56.5q0 -49 26.5 -85t71.5 -36q39 0 75 28.5t59.5 79t23.5 113.5q0 68 -28.5 119t-92.5 68q76 33 124 107.5t48 139.5q0 49 -23.5 73t-60.5 24q-43 0 -75.5 -29t-32.5 -78q0 -29 16 -67 q-6 -12 -21.5 -22.5t-27.5 -10.5q-20 0 -31.5 26.5t-11.5 57.5q0 72 59.5 114.5t136.5 42.5q68 0 116 -35.5t48 -99.5q0 -68 -48 -138.5t-120 -94.5q74 -25 109 -81t35 -116q0 -66 -38 -126t-103.5 -98t-145.5 -38q-88 0 -131 46t-43 104z" />
<glyph unicode="&#xb4;" horiz-adv-x="256" d="M180 881q0 25 38 87t88.5 111t86.5 49q39 0 45 -63q-152 -131 -229 -238q-14 7 -21.5 24t-7.5 30z" />
<glyph unicode="&#xb5;" horiz-adv-x="1198" d="M-82 -496q25 82 80 238q47 129 80 235.5t68.5 290t68.5 461.5q2 20 9 27.5t30 7.5q49 0 73.5 -27.5t24.5 -66.5q-53 -236 -75.5 -356.5t-22.5 -190.5q0 -102 59 -103q72 0 157 132.5t183 334.5l33 68q98 -18 98 -53q0 -4 -9 -27.5t-17 -42.5q-47 -104 -79 -195.5 t-32 -154.5q0 -82 68 -82q45 0 106.5 40t125 115.5t110.5 176.5l26 -19q-43 -109 -111.5 -193.5t-148.5 -132.5t-151 -48q-143 0 -144 151q0 41 15 103q-66 -117 -131.5 -185.5t-137.5 -68.5q-51 0 -86 34q-154 -547 -206 -546q-25 0 -44.5 32.5t-19.5 44.5z" />
<glyph unicode="&#xb6;" horiz-adv-x="1318" d="M125 688q0 143 96 252t243.5 171.5t297.5 74.5q-4 152 -19 264q33 16 60 16q49 0 62.5 -58t13.5 -161q0 -45 2 -63q29 -2 50 -6t36 -7q-4 182 -13 279q25 16 54 16q57 0 73 -323q98 -33 170 -68q-6 -14 -38.5 -34.5t-45.5 -20.5q-8 0 -43 20l-41 23q2 -35 2 -105 q0 -426 -11 -708.5t-21 -325.5q-16 -47 -55.5 -74.5t-84.5 -27.5q6 12 19.5 239.5t24 522.5t10.5 524v8q-35 10 -84 21q6 -154 6 -453q0 -305 -12.5 -517t-22.5 -243q-16 -43 -70.5 -72.5t-109.5 -29.5l22 254l21 243q-207 10 -399.5 91.5t-192.5 277.5z" />
<glyph unicode="&#xb7;" horiz-adv-x="428" d="M78 309q0 33 39 58.5t80 25.5q53 0 53 -49q0 -31 -34 -60.5t-73 -29.5q-28 0 -46.5 14.5t-18.5 40.5z" />
<glyph unicode="&#xb8;" horiz-adv-x="444" d="M41 -358q0 35 45 67q10 -47 34 -69.5t52 -22.5q37 0 77 28.5t66.5 71.5t26.5 78q0 18 -8 34.5t-26 16.5q-23 0 -49.5 -14t-69.5 -41q-8 -4 -27.5 -16.5t-28.5 -12.5q-12 0 -20 12.5t-8 24.5q0 8 60.5 90t92.5 111h27l-109 -166q31 23 63 36t75 13q92 0 92 -86 q0 -57 -34 -110.5t-89 -86t-117 -32.5q-57 0 -91 21.5t-34 52.5z" />
<glyph unicode="&#xb9;" horiz-adv-x="532" d="M135 692h25l18 -2q45 0 103 10q27 59 47 154.5t49 245.5q27 154 43 211q-82 -53 -105 -54q-16 0 -23 8.5t-7 28.5q29 14 96.5 67.5t118.5 106.5h12q10 -10 10 -32q0 -23 -12 -68q-14 -59 -37 -180l-39 -189l-26 -127q-14 -63 -26.5 -101t-31.5 -60q10 2 27 2 q45 0 71.5 -14.5t34.5 -51.5q-53 4 -88 4q-37 0 -94 -4q-53 -4 -78 -4q-22 0 -46.5 13.5t-41.5 35.5z" />
<glyph unicode="&#xba;" horiz-adv-x="571" d="M219 1049q0 78 52.5 179t133 174t162.5 73q47 0 62 -29q29 0 44 -17.5t15 -37.5q0 -12 -20 -58q-18 -37 -27.5 -64.5t-9.5 -58.5q0 -33 41 -32q6 0 55 6q-10 -16 -33.5 -28.5t-50.5 -12.5q-39 0 -53 26q-47 -111 -114.5 -177t-141.5 -66q-53 0 -84 33.5t-31 89.5z M311 1059q0 -33 14.5 -52.5t41.5 -19.5q47 0 106 63.5t98 155.5q-8 33 -8 82q0 92 27 131q-76 0 -139.5 -63.5t-101.5 -150.5t-38 -146z" />
<glyph unicode="&#xbb;" horiz-adv-x="931" d="M104 602q0 12 3.5 24.5t7.5 20.5q66 -92 177 -186t212 -137q-10 -39 -70.5 -95.5t-134.5 -97.5t-121 -41q-30 0 -59 33q127 49 188.5 84t143.5 94q-145 76 -246 151.5t-101 149.5zM412 602q0 12 3 24.5t7 20.5q66 -92 177.5 -186t211.5 -137q-10 -39 -70.5 -95.5 t-134.5 -97.5t-121 -41q-30 0 -59 33q127 49 188.5 84t143.5 94q-145 76 -245.5 151.5t-100.5 149.5z" />
<glyph unicode="&#xbc;" horiz-adv-x="1314" d="M92 -178q90 90 272.5 391t359.5 642t249 527q10 31 67.5 62t104.5 31q-39 -98 -295 -589t-379 -687q-117 -186 -207 -281.5t-172 -95.5zM135 692h25l18 -2q45 0 103 10q27 59 47 154.5t49 245.5q27 154 43 211q-82 -53 -105 -54q-16 0 -23 8.5t-7 28.5q29 14 96.5 67.5 t118.5 106.5h12q10 -10 10 -32q0 -23 -12 -68q-14 -59 -37 -180l-39 -189l-26 -127q-14 -63 -26.5 -101t-31.5 -60q10 2 27 2q45 0 71.5 -14.5t34.5 -51.5q-53 4 -88 4q-37 0 -94 -4q-53 -4 -78 -4q-22 0 -46.5 13.5t-41.5 35.5zM717 258q0 31 20 51q147 131 258 244 t170 219q27 -4 27 -29q0 -6 -12 -47q-4 -14 -28 -105t-54 -255h35q23 0 73 10q-23 -31 -52.5 -51.5t-51.5 -20.5h-15q-10 -55 -26.5 -163.5t-16.5 -163.5q-98 6 -98 53q0 39 51 274l-39 2h-34q-123 0 -207 -18zM829 338q50 4 89 4l57 -2h39l10 47q25 123 45 184l-90 -88 l-39 -37q-70 -61 -111 -108z" />
<glyph unicode="&#xbd;" horiz-adv-x="1429" d="M104 -178q91 90 273 391t359 642t249 527q10 31 67.5 62t104.5 31q-39 -98 -295 -589t-379 -687q-117 -186 -207 -281.5t-172 -95.5zM147 692h25l18 -2q45 0 103 10q27 59 47 154.5t49 245.5q27 154 43 211q-82 -53 -104 -54q-16 0 -23.5 8.5t-7.5 28.5q29 14 96.5 67.5 t118.5 106.5h12q10 -10 11 -32q0 -23 -13 -68q-14 -59 -37 -180l-39 -189l-26 -127q-14 -63 -26.5 -101t-31.5 -60q10 2 27 2q45 0 71.5 -14.5t35.5 -51.5q-53 4 -88 4q-37 0 -95 -4q-53 -4 -77 -4q-23 0 -47.5 13.5t-41.5 35.5zM707 39q0 53 84 53q33 0 104 -14 q100 88 183 241.5t83 280.5q0 70 -27.5 104.5t-72.5 34.5q-59 0 -95 -57t-36 -143q0 -33 14 -74h-16q-41 12 -59.5 32.5t-18.5 61.5q0 86 65.5 150.5t161.5 64.5q76 0 124 -54t48 -134q0 -129 -86 -276.5t-202 -243.5l16 -5q139 -33 186 -32q33 0 90 37q-16 -61 -43.5 -90 t-72.5 -29q-37 0 -85 15t-114 44l-39 17q-66 -43 -115 -43q-35 0 -56 16t-21 43zM754 37q0 -8 9 -14.5t19 -6.5q21 0 64 27q-37 14 -64 14q-14 0 -21 -6t-7 -14z" />
<glyph unicode="&#xbe;" horiz-adv-x="1402" d="M170 793q0 43 24.5 77.5t67.5 34.5q16 0 29 -4q-16 -12 -25.5 -39.5t-9.5 -56.5q0 -49 26.5 -85t71.5 -36q39 0 75 28.5t59.5 79t23.5 113.5q0 68 -28.5 119t-92.5 68q76 33 124 107.5t48 139.5q0 49 -23.5 73t-60.5 24q-43 0 -75.5 -29t-32.5 -78q0 -29 16 -67 q-6 -12 -21.5 -22.5t-27.5 -10.5q-20 0 -31.5 26.5t-11.5 57.5q0 72 59.5 114.5t137.5 42.5q68 0 115.5 -35.5t47.5 -99.5q0 -68 -48 -138.5t-120 -94.5q74 -25 109 -81t35 -116q0 -66 -38 -126t-103.5 -98t-145.5 -38q-88 0 -131 46t-43 104zM180 -178q90 90 272.5 391 t359.5 642t249 527q10 31 67.5 62t104.5 31q-39 -98 -295 -589t-379 -687q-117 -186 -207 -281.5t-172 -95.5zM805 258q0 31 20 51q147 131 258 244t170 219q27 -4 27 -29q0 -6 -12 -47q-4 -14 -27.5 -105t-54.5 -255h35q23 0 73 10q-23 -31 -52.5 -51.5t-51.5 -20.5h-14 q-10 -55 -26.5 -163.5t-16.5 -163.5q-99 6 -99 53q0 39 51 274l-38 2h-35q-123 0 -207 -18zM918 338q49 4 88 4l57 -2h39l10 47q25 123 45 184l-90 -88l-39 -37q-70 -61 -110 -108z" />
<glyph unicode="&#xbf;" horiz-adv-x="849" d="M-102 -330q0 98 46 170t142 170q88 92 136 155.5t75 149.5q14 45 22 103q12 72 29 106q39 -18 51.5 -34.5t12.5 -51.5q0 -96 -47.5 -173t-141.5 -181q-68 -78 -107.5 -131t-67.5 -121t-28 -145q0 -100 45.5 -154.5t116.5 -54.5q72 0 144.5 53t119 143t46.5 195 q0 43 -15 104q74 -10 100.5 -44.5t26.5 -96.5q0 -104 -55 -197.5t-153.5 -150.5t-221.5 -57q-129 0 -202.5 63.5t-73.5 179.5zM319 705q0 35 34 64.5t73 29.5q27 0 46.5 -14.5t19.5 -39.5q0 -35 -38 -60.5t-81 -25.5q-54 1 -54 46z" />
<glyph unicode="&#xc0;" d="M-35 -72q0 80 85 250t226 391q-125 10 -221 11h-71q39 106 213 106q55 0 147 -14q158 238 320.5 447.5t257.5 297.5q59 57 98 58q43 0 108 -66q-41 -33 -118.5 -265.5t-139 -508t-61.5 -442.5q0 -82 17.5 -123t58.5 -41q113 0 268 303l21 -21q-63 -168 -158.5 -270 t-196.5 -102q-82 0 -121 72.5t-39 201.5q0 131 35 305q-131 20 -303 41q-201 -369 -356 -737q-70 38 -70 106zM444 653q82 -16 172 -41l93 -22q43 192 110.5 399t134.5 357q-92 -57 -226 -241.5t-284 -451.5zM862 1770q6 63 45 63q37 0 87 -49t88 -111.5t38 -86.5 q0 -12 -7 -30t-22 -24q-77 107 -229 238z" />
<glyph unicode="&#xc1;" d="M-35 -72q0 80 85 250t226 391q-125 10 -221 11h-71q39 106 213 106q55 0 147 -14q158 238 320.5 447.5t257.5 297.5q59 57 98 58q43 0 108 -66q-41 -33 -118.5 -265.5t-139 -508t-61.5 -442.5q0 -82 17.5 -123t58.5 -41q113 0 268 303l21 -21q-63 -168 -158.5 -270 t-196.5 -102q-82 0 -121 72.5t-39 201.5q0 131 35 305q-131 20 -303 41q-201 -369 -356 -737q-70 38 -70 106zM444 653q82 -16 172 -41l93 -22q43 192 110.5 399t134.5 357q-92 -57 -226 -241.5t-284 -451.5zM1067 1586q0 25 38 87t88 111t87 49q39 0 45 -63 q-152 -131 -229 -238q-15 6 -22 23.5t-7 30.5z" />
<glyph unicode="&#xc2;" d="M-35 -72q0 80 85 250t226 391q-125 10 -221 11h-71q39 106 213 106q55 0 147 -14q158 238 320.5 447.5t257.5 297.5q59 57 98 58q43 0 108 -66q-41 -33 -118.5 -265.5t-139 -508t-61.5 -442.5q0 -82 17.5 -123t58.5 -41q113 0 268 303l21 -21q-63 -168 -158.5 -270 t-196.5 -102q-82 0 -121 72.5t-39 201.5q0 131 35 305q-131 20 -303 41q-201 -369 -356 -737q-70 38 -70 106zM444 653q82 -16 172 -41l93 -22q43 192 110.5 399t134.5 357q-92 -57 -226 -241.5t-284 -451.5zM901 1635q0 37 45 79t102.5 71.5t85.5 29.5q33 0 77 -39t76 -92 t32 -96q0 -45 -35 -64q-27 53 -61.5 94t-90.5 95q-70 -25 -118.5 -51.5t-91.5 -65.5q-20 12 -21 39z" />
<glyph unicode="&#xc3;" d="M-35 -72q0 80 85 250t226 391q-125 10 -221 11h-71q39 106 213 106q55 0 147 -14q158 238 320.5 447.5t257.5 297.5q59 57 98 58q43 0 108 -66q-41 -33 -118.5 -265.5t-139 -508t-61.5 -442.5q0 -82 17.5 -123t58.5 -41q113 0 268 303l21 -21q-63 -168 -158.5 -270 t-196.5 -102q-82 0 -121 72.5t-39 201.5q0 131 35 305q-131 20 -303 41q-201 -369 -356 -737q-70 38 -70 106zM444 653q82 -16 172 -41l93 -22q43 192 110.5 399t134.5 357q-92 -57 -226 -241.5t-284 -451.5zM803 1622q74 102 178 103q37 0 76 -11.5t92 -33.5 q80 -29 125 -41.5t96 -12.5q33 0 70 17q-68 -84 -168 -84q-37 0 -75 11t-95 34q-59 25 -102.5 37t-86.5 12q-63 0 -110 -31z" />
<glyph unicode="&#xc4;" d="M-35 -72q0 80 85 250t226 391q-125 10 -221 11h-71q39 106 213 106q55 0 147 -14q158 238 320.5 447.5t257.5 297.5q59 57 98 58q43 0 108 -66q-41 -33 -118.5 -265.5t-139 -508t-61.5 -442.5q0 -82 17.5 -123t58.5 -41q113 0 268 303l21 -21q-63 -168 -158.5 -270 t-196.5 -102q-82 0 -121 72.5t-39 201.5q0 131 35 305q-131 20 -303 41q-201 -369 -356 -737q-70 38 -70 106zM444 653q82 -16 172 -41l93 -22q43 192 110.5 399t134.5 357q-92 -57 -226 -241.5t-284 -451.5zM876 1647q0 37 44.5 66.5t91.5 29.5q61 0 61 -57 q0 -35 -38 -67.5t-83 -32.5q-33 0 -54.5 15t-21.5 46zM1171 1604q0 37 44 66.5t92 29.5q61 0 61 -57q0 -35 -38 -67.5t-83 -32.5q-33 0 -54.5 15t-21.5 46z" />
<glyph unicode="&#xc5;" d="M-35 -72q0 80 85 250t226 391q-125 10 -221 11h-71q39 106 213 106q55 0 147 -14q158 238 320.5 447.5t257.5 297.5q59 57 98 58q43 0 108 -66q-41 -33 -118.5 -265.5t-139 -508t-61.5 -442.5q0 -82 17.5 -123t58.5 -41q113 0 268 303l21 -21q-63 -168 -158.5 -270 t-196.5 -102q-82 0 -121 72.5t-39 201.5q0 131 35 305q-131 20 -303 41q-201 -369 -356 -737q-70 38 -70 106zM444 653q82 -16 172 -41l93 -22q43 192 110.5 399t134.5 357q-92 -57 -226 -241.5t-284 -451.5zM946 1655q0 49 34 103.5t92 90.5t124 36q80 0 118 -31t38 -80 t-36 -103.5t-96.5 -90t-125.5 -35.5q-76 0 -112 30.5t-36 79.5zM1026 1669q0 -31 22.5 -57t63.5 -26q39 0 77 28.5t62.5 70.5t24.5 77q0 31 -23.5 53t-66.5 22q-39 0 -76 -26.5t-60.5 -65.5t-23.5 -76z" />
<glyph unicode="&#xc6;" horiz-adv-x="1529" d="M-35 -72q0 80 85 250t226 391q-125 10 -221 11h-71q39 106 213 106q55 0 147 -14q221 332 415.5 567.5t260.5 235.5q147 0 334.5 -15.5t298.5 -32.5q-16 -43 -109.5 -58t-238.5 -15q-84 0 -211 4q-35 -70 -82 -208t-90 -300q150 -4 354 -37l72 -10q-16 -43 -109.5 -58.5 t-239.5 -15.5q-80 0 -108 2q-82 -348 -82 -538q0 -49 6 -84q102 -14 291 -31q20 -2 121.5 -11.5t144.5 -19.5q-16 -43 -109.5 -58.5t-238.5 -15.5q-227 0 -305 9q-31 31 -45.5 91t-14.5 140q0 131 35 305q-131 20 -303 41q-201 -369 -356 -737q-70 38 -70 106zM444 653 q82 -16 172 -41l93 -22q43 192 110.5 399t134.5 357q-92 -57 -226 -241.5t-284 -451.5z" />
<glyph unicode="&#xc7;" horiz-adv-x="1093" d="M45 322q0 262 129 531t325.5 444.5t387.5 175.5q88 0 138 -43.5t50 -133.5q0 -80 -37 -184t-92 -178t-108 -74q-41 0 -64 47q76 86 147.5 209t71.5 203q0 43 -24.5 67.5t-75.5 24.5q-141 0 -303 -183.5t-271.5 -449.5t-109.5 -491q0 -168 71.5 -282t217.5 -114 q104 0 212.5 60.5t198.5 161t146 219.5l28 -21q-96 -188 -227 -311l-108 -166q31 23 62.5 36t74.5 13q92 0 92 -86q0 -57 -34 -110.5t-89 -86t-117 -32.5q-57 0 -91 21.5t-34 52.5q0 35 45 67q10 -47 34 -69.5t52 -22.5q37 0 77 28.5t66.5 71.5t26.5 78q0 18 -8 34.5 t-26 16.5q-23 0 -49.5 -14t-69.5 -41q-8 -4 -27.5 -16.5t-27.5 -12.5q-12 0 -20.5 12.5t-8.5 24.5q0 4 28.5 44t61.5 83q-154 -104 -317 -104q-137 0 -228.5 69.5t-133.5 183t-42 247.5z" />
<glyph unicode="&#xc8;" horiz-adv-x="1019" d="M-31 195q0 125 72 241.5t193.5 195.5t265.5 93q-78 63 -117 148t-39 176q0 109 55.5 207t151.5 157.5t215 59.5q113 0 173 -57.5t60 -164.5q0 -74 -26.5 -145.5t-65.5 -117.5t-71 -46q-23 0 -43.5 18.5t-32.5 47.5q172 150 172 284q0 63 -37 98t-109 35 q-137 0 -214.5 -117.5t-77.5 -293.5q0 -207 118 -309q-131 -23 -234.5 -103t-160.5 -191.5t-57 -222.5q0 -117 64.5 -207t197.5 -90q104 0 212.5 60.5t199 161t145.5 219.5l29 -21q-115 -221 -279 -355t-360 -134q-119 0 -210 50t-140.5 135t-49.5 188zM631 1770q6 63 45 63 q37 0 87 -49t88 -111.5t38 -86.5q0 -12 -7 -30t-22 -24q-77 107 -229 238z" />
<glyph unicode="&#xc9;" horiz-adv-x="1019" d="M-31 195q0 125 72 241.5t193.5 195.5t265.5 93q-78 63 -117 148t-39 176q0 109 55.5 207t151.5 157.5t215 59.5q113 0 173 -57.5t60 -164.5q0 -74 -26.5 -145.5t-65.5 -117.5t-71 -46q-23 0 -43.5 18.5t-32.5 47.5q172 150 172 284q0 63 -37 98t-109 35 q-137 0 -214.5 -117.5t-77.5 -293.5q0 -207 118 -309q-131 -23 -234.5 -103t-160.5 -191.5t-57 -222.5q0 -117 64.5 -207t197.5 -90q104 0 212.5 60.5t199 161t145.5 219.5l29 -21q-115 -221 -279 -355t-360 -134q-119 0 -210 50t-140.5 135t-49.5 188zM836 1586q0 25 38 87 t88 111t87 49q39 0 45 -63q-152 -131 -229 -238q-15 6 -22 23.5t-7 30.5z" />
<glyph unicode="&#xca;" horiz-adv-x="1019" d="M-31 195q0 125 72 241.5t193.5 195.5t265.5 93q-78 63 -117 148t-39 176q0 109 55.5 207t151.5 157.5t215 59.5q113 0 173 -57.5t60 -164.5q0 -74 -26.5 -145.5t-65.5 -117.5t-71 -46q-23 0 -43.5 18.5t-32.5 47.5q172 150 172 284q0 63 -37 98t-109 35 q-137 0 -214.5 -117.5t-77.5 -293.5q0 -207 118 -309q-131 -23 -234.5 -103t-160.5 -191.5t-57 -222.5q0 -117 64.5 -207t197.5 -90q104 0 212.5 60.5t199 161t145.5 219.5l29 -21q-115 -221 -279 -355t-360 -134q-119 0 -210 50t-140.5 135t-49.5 188zM670 1635q0 37 45 79 t102.5 71.5t85.5 29.5q33 0 77 -39t76 -92t32 -96q0 -45 -35 -64q-27 53 -61.5 94t-90.5 95q-70 -25 -118.5 -51.5t-91.5 -65.5q-20 12 -21 39z" />
<glyph unicode="&#xcb;" horiz-adv-x="1019" d="M-31 195q0 125 72 241.5t193.5 195.5t265.5 93q-78 63 -117 148t-39 176q0 109 55.5 207t151.5 157.5t215 59.5q113 0 173 -57.5t60 -164.5q0 -74 -26.5 -145.5t-65.5 -117.5t-71 -46q-23 0 -43.5 18.5t-32.5 47.5q172 150 172 284q0 63 -37 98t-109 35 q-137 0 -214.5 -117.5t-77.5 -293.5q0 -207 118 -309q-131 -23 -234.5 -103t-160.5 -191.5t-57 -222.5q0 -117 64.5 -207t197.5 -90q104 0 212.5 60.5t199 161t145.5 219.5l29 -21q-115 -221 -279 -355t-360 -134q-119 0 -210 50t-140.5 135t-49.5 188zM645 1647 q0 37 44.5 66.5t91.5 29.5q61 0 61 -57q0 -35 -38 -67.5t-83 -32.5q-33 0 -54.5 15t-21.5 46zM940 1604q0 37 44 66.5t92 29.5q61 0 61 -57q0 -35 -38 -67.5t-83 -32.5q-33 0 -54.5 15t-21.5 46z" />
<glyph unicode="&#xcc;" horiz-adv-x="940" d="M-78 -180q10 102 94 133t240 31q61 131 118.5 348t135.5 557q10 45 50 216t69 249q-162 -4 -255 -12.5t-206 -28.5q14 80 113.5 118.5t304.5 38.5q133 0 283.5 -14t252.5 -29q-43 -43 -93 -57t-105 -14q-160 0 -224 -2l-14 -74q-127 -705 -188 -948q-35 -139 -76 -226.5 t-96 -123.5q96 -6 198 -19q150 -18 246 -20q-88 -88 -231 -88h-101q-188 -2 -296.5 -7.5t-219.5 -27.5zM479 1770q6 63 45 63q37 0 87 -49t88 -111.5t38 -86.5q0 -12 -7 -30t-22 -24q-77 107 -229 238z" />
<glyph unicode="&#xcd;" horiz-adv-x="940" d="M-78 -180q10 102 94 133t240 31q61 131 118.5 348t135.5 557q10 45 50 216t69 249q-162 -4 -255 -12.5t-206 -28.5q14 80 113.5 118.5t304.5 38.5q133 0 283.5 -14t252.5 -29q-43 -43 -93 -57t-105 -14q-160 0 -224 -2l-14 -74q-127 -705 -188 -948q-35 -139 -76 -226.5 t-96 -123.5q96 -6 198 -19q150 -18 246 -20q-88 -88 -231 -88h-101q-188 -2 -296.5 -7.5t-219.5 -27.5zM684 1586q0 25 38 87t88 111t87 49q39 0 45 -63q-152 -131 -229 -238q-15 6 -22 23.5t-7 30.5z" />
<glyph unicode="&#xce;" horiz-adv-x="940" d="M-78 -180q10 102 94 133t240 31q61 131 118.5 348t135.5 557q10 45 50 216t69 249q-162 -4 -255 -12.5t-206 -28.5q14 80 113.5 118.5t304.5 38.5q133 0 283.5 -14t252.5 -29q-43 -43 -93 -57t-105 -14q-160 0 -224 -2l-14 -74q-127 -705 -188 -948q-35 -139 -76 -226.5 t-96 -123.5q96 -6 198 -19q150 -18 246 -20q-88 -88 -231 -88h-101q-188 -2 -296.5 -7.5t-219.5 -27.5zM518 1635q0 37 45 79t102.5 71.5t85.5 29.5q33 0 77 -39t76 -92t32 -96q0 -45 -35 -64q-27 53 -61.5 94t-90.5 95q-70 -25 -118.5 -51.5t-91.5 -65.5q-20 12 -21 39z " />
<glyph unicode="&#xcf;" horiz-adv-x="940" d="M-78 -180q10 102 94 133t240 31q61 131 118.5 348t135.5 557q10 45 50 216t69 249q-162 -4 -255 -12.5t-206 -28.5q14 80 113.5 118.5t304.5 38.5q133 0 283.5 -14t252.5 -29q-43 -43 -93 -57t-105 -14q-160 0 -224 -2l-14 -74q-127 -705 -188 -948q-35 -139 -76 -226.5 t-96 -123.5q96 -6 198 -19q150 -18 246 -20q-88 -88 -231 -88h-101q-188 -2 -296.5 -7.5t-219.5 -27.5zM493 1647q0 37 44.5 66.5t91.5 29.5q61 0 61 -57q0 -35 -38 -67.5t-83 -32.5q-33 0 -54.5 15t-21.5 46zM788 1604q0 37 44 66.5t92 29.5q61 0 61 -57q0 -35 -38 -67.5 t-83 -32.5q-33 0 -54.5 15t-21.5 46z" />
<glyph unicode="&#xd0;" horiz-adv-x="1339" d="M66 561q31 82 256 96q84 266 149 445q25 66 66 129t94 63q29 0 57 -20q-113 -260 -227 -612q158 0 336 -19q-82 -59 -211 -59h-150q-123 -385 -190 -701q49 -8 88 -8q211 0 403.5 157.5t311 404.5t118.5 499q0 240 -112.5 361.5t-306.5 121.5q-131 0 -239 -52 t-169 -144.5t-61 -202.5q0 -45 10 -76q-63 0 -93 32t-30 83q0 96 88 192.5t236.5 160t318.5 63.5q260 0 385 -154t125 -408q0 -287 -144.5 -538.5t-373 -402t-465.5 -150.5q-74 0 -128 19.5t-91 72.5q51 250 180 668q-96 0 -231 -21z" />
<glyph unicode="&#xd1;" horiz-adv-x="1310" d="M94 -178q35 129 152 512q125 403 282 934q14 51 15 84q0 47 -31 47q-63 0 -117.5 -61.5t-87.5 -147.5t-33 -156q0 -41 11 -71q-63 0 -93 31.5t-30 84.5q0 88 68.5 181.5t166 154t174.5 60.5q76 0 122 -85t68.5 -213t47.5 -341q43 -383 90 -689q27 174 95.5 440.5t141 503 t93.5 283.5q14 33 51 67t78 34q-74 -195 -170 -533t-166 -654.5t-72 -465.5q-66 0 -104.5 38t-54.5 128q-27 143 -87.5 545.5t-99.5 672.5q-190 -686 -266 -936t-128 -349t-116 -99zM684 1622q74 102 178 103q37 0 76 -11.5t92 -33.5q80 -29 125 -41.5t96 -12.5q33 0 70 17 q-68 -84 -168 -84q-37 0 -75 11t-95 34q-59 25 -102.5 37t-86.5 12q-63 0 -110 -31z" />
<glyph unicode="&#xd2;" horiz-adv-x="1275" d="M43 330q0 256 130 524t328.5 443.5t389.5 175.5q78 0 123 -25h-23q-170 0 -350 -181.5t-299 -451.5t-119 -514q0 -178 68.5 -294t206.5 -116q182 0 332.5 179.5t237.5 447.5t87 516q0 104 -22.5 193.5t-69.5 89.5t-105.5 -75t-106.5 -179.5t-65 -183.5q-49 12 -73.5 38.5 t-24.5 61.5q0 70 64.5 164t152.5 161.5t154 67.5q94 0 134 -121t40 -274q0 -350 -125 -613.5t-311.5 -402.5t-360.5 -139q-117 0 -206 62.5t-138 178t-49 267.5zM819 1770q6 63 45 63q37 0 87 -49t88 -111.5t38 -86.5q0 -12 -7 -30t-22 -24q-77 107 -229 238z" />
<glyph unicode="&#xd3;" horiz-adv-x="1275" d="M43 330q0 256 130 524t328.5 443.5t389.5 175.5q78 0 123 -25h-23q-170 0 -350 -181.5t-299 -451.5t-119 -514q0 -178 68.5 -294t206.5 -116q182 0 332.5 179.5t237.5 447.5t87 516q0 104 -22.5 193.5t-69.5 89.5t-105.5 -75t-106.5 -179.5t-65 -183.5q-49 12 -73.5 38.5 t-24.5 61.5q0 70 64.5 164t152.5 161.5t154 67.5q94 0 134 -121t40 -274q0 -350 -125 -613.5t-311.5 -402.5t-360.5 -139q-117 0 -206 62.5t-138 178t-49 267.5zM1024 1586q0 25 38 87t88 111t87 49q39 0 45 -63q-152 -131 -229 -238q-15 6 -22 23.5t-7 30.5z" />
<glyph unicode="&#xd4;" horiz-adv-x="1275" d="M43 330q0 256 130 524t328.5 443.5t389.5 175.5q78 0 123 -25h-23q-170 0 -350 -181.5t-299 -451.5t-119 -514q0 -178 68.5 -294t206.5 -116q182 0 332.5 179.5t237.5 447.5t87 516q0 104 -22.5 193.5t-69.5 89.5t-105.5 -75t-106.5 -179.5t-65 -183.5q-49 12 -73.5 38.5 t-24.5 61.5q0 70 64.5 164t152.5 161.5t154 67.5q94 0 134 -121t40 -274q0 -350 -125 -613.5t-311.5 -402.5t-360.5 -139q-117 0 -206 62.5t-138 178t-49 267.5zM858 1635q0 37 45 79t102.5 71.5t85.5 29.5q33 0 77 -39t76 -92t32 -96q0 -45 -35 -64q-27 53 -61.5 94 t-90.5 95q-70 -25 -118.5 -51.5t-91.5 -65.5q-20 12 -21 39z" />
<glyph unicode="&#xd5;" horiz-adv-x="1275" d="M43 330q0 256 130 524t328.5 443.5t389.5 175.5q78 0 123 -25h-23q-170 0 -350 -181.5t-299 -451.5t-119 -514q0 -178 68.5 -294t206.5 -116q182 0 332.5 179.5t237.5 447.5t87 516q0 104 -22.5 193.5t-69.5 89.5t-105.5 -75t-106.5 -179.5t-65 -183.5q-49 12 -73.5 38.5 t-24.5 61.5q0 70 64.5 164t152.5 161.5t154 67.5q94 0 134 -121t40 -274q0 -350 -125 -613.5t-311.5 -402.5t-360.5 -139q-117 0 -206 62.5t-138 178t-49 267.5zM760 1622q74 102 178 103q37 0 76 -11.5t92 -33.5q80 -29 125 -41.5t96 -12.5q33 0 70 17q-68 -84 -168 -84 q-37 0 -75 11t-95 34q-59 25 -102.5 37t-86.5 12q-63 0 -110 -31z" />
<glyph unicode="&#xd6;" horiz-adv-x="1275" d="M43 330q0 256 130 524t328.5 443.5t389.5 175.5q78 0 123 -25h-23q-170 0 -350 -181.5t-299 -451.5t-119 -514q0 -178 68.5 -294t206.5 -116q182 0 332.5 179.5t237.5 447.5t87 516q0 104 -22.5 193.5t-69.5 89.5t-105.5 -75t-106.5 -179.5t-65 -183.5q-49 12 -73.5 38.5 t-24.5 61.5q0 70 64.5 164t152.5 161.5t154 67.5q94 0 134 -121t40 -274q0 -350 -125 -613.5t-311.5 -402.5t-360.5 -139q-117 0 -206 62.5t-138 178t-49 267.5zM833 1647q0 37 44.5 66.5t91.5 29.5q61 0 61 -57q0 -35 -38 -67.5t-83 -32.5q-33 0 -54.5 15t-21.5 46z M1128 1604q0 37 44 66.5t92 29.5q61 0 61 -57q0 -35 -38 -67.5t-83 -32.5q-33 0 -54.5 15t-21.5 46z" />
<glyph unicode="&#xd7;" horiz-adv-x="772" d="M98 88q0 47 40 108.5t118 145.5q-141 152 -141 236q0 20 8 36q47 -66 86 -110.5t100 -108.5q133 133 256 230q-14 -98 -106 -191l-92 -94l108 -109q90 -94 107 -190q-123 96 -256 229l-17 15q-68 -68 -108.5 -115t-94.5 -119q-8 16 -8 37z" />
<glyph unicode="&#xd8;" horiz-adv-x="1275" d="M43 330q0 256 130 524t328.5 443.5t389.5 175.5q78 0 123 -25h-23q-170 0 -350 -181.5t-299 -451.5t-119 -514q0 -174 58 -276q176 219 392 536.5t453 683.5q-25 72 -63 72q-47 0 -105.5 -75t-106.5 -179.5t-65 -183.5q-49 12 -73.5 38.5t-24.5 61.5q0 70 64.5 164 t152.5 161.5t154 67.5t106 -65l9 10q14 23 61 40t92 17q23 0 33 -2l-29 -43l-114 -170q16 -82 16 -182q0 -350 -125 -613.5t-311.5 -402.5t-360.5 -139q-88 0 -166 39q-94 -68 -176 -68q-13 0 -33 4q45 31 127 123q-70 66 -107.5 171.5t-37.5 238.5zM356 -66q63 -43 142 -43 q182 0 332.5 179.5t237.5 447.5t87 516v33q-444 -657 -666 -973q-72 -100 -133 -160z" />
<glyph unicode="&#xd9;" horiz-adv-x="1445" d="M51 1104q0 86 54.5 172t144.5 142.5t192 56.5q109 0 160 -66t51 -182q0 -102 -31.5 -227.5t-97.5 -333.5q-61 -199 -92 -319t-31 -214q0 -102 42 -165.5t130 -63.5q104 0 190.5 87t145 214t88.5 254q111 455 198 735.5t159 280.5q16 0 44.5 -17.5t57.5 -48.5 q-37 -25 -131 -284t-170 -560t-76 -479q0 -137 37 -188.5t127 -51.5q-72 -49 -135 -49q-74 0 -120 63.5t-46 153.5q0 63 19 187q-174 -379 -443 -379q-127 0 -196.5 77.5t-69.5 200.5q0 84 29.5 204t91.5 325q68 227 101.5 364t33.5 244q0 180 -115 180q-70 0 -119 -57 t-73.5 -140t-24.5 -157q0 -61 17 -100q-74 0 -108 38.5t-34 102.5zM747 1770q6 63 45 63q37 0 87 -49t88 -111.5t38 -86.5q0 -12 -7 -30t-22 -24q-77 107 -229 238z" />
<glyph unicode="&#xda;" horiz-adv-x="1445" d="M51 1104q0 86 54.5 172t144.5 142.5t192 56.5q109 0 160 -66t51 -182q0 -102 -31.5 -227.5t-97.5 -333.5q-61 -199 -92 -319t-31 -214q0 -102 42 -165.5t130 -63.5q104 0 190.5 87t145 214t88.5 254q111 455 198 735.5t159 280.5q16 0 44.5 -17.5t57.5 -48.5 q-37 -25 -131 -284t-170 -560t-76 -479q0 -137 37 -188.5t127 -51.5q-72 -49 -135 -49q-74 0 -120 63.5t-46 153.5q0 63 19 187q-174 -379 -443 -379q-127 0 -196.5 77.5t-69.5 200.5q0 84 29.5 204t91.5 325q68 227 101.5 364t33.5 244q0 180 -115 180q-70 0 -119 -57 t-73.5 -140t-24.5 -157q0 -61 17 -100q-74 0 -108 38.5t-34 102.5zM952 1586q0 25 38 87t88 111t87 49q39 0 45 -63q-152 -131 -229 -238q-15 6 -22 23.5t-7 30.5z" />
<glyph unicode="&#xdb;" horiz-adv-x="1445" d="M51 1104q0 86 54.5 172t144.5 142.5t192 56.5q109 0 160 -66t51 -182q0 -102 -31.5 -227.5t-97.5 -333.5q-61 -199 -92 -319t-31 -214q0 -102 42 -165.5t130 -63.5q104 0 190.5 87t145 214t88.5 254q111 455 198 735.5t159 280.5q16 0 44.5 -17.5t57.5 -48.5 q-37 -25 -131 -284t-170 -560t-76 -479q0 -137 37 -188.5t127 -51.5q-72 -49 -135 -49q-74 0 -120 63.5t-46 153.5q0 63 19 187q-174 -379 -443 -379q-127 0 -196.5 77.5t-69.5 200.5q0 84 29.5 204t91.5 325q68 227 101.5 364t33.5 244q0 180 -115 180q-70 0 -119 -57 t-73.5 -140t-24.5 -157q0 -61 17 -100q-74 0 -108 38.5t-34 102.5zM786 1635q0 37 45 79t102.5 71.5t85.5 29.5q33 0 77 -39t76 -92t32 -96q0 -45 -35 -64q-27 53 -61.5 94t-90.5 95q-70 -25 -118.5 -51.5t-91.5 -65.5q-20 12 -21 39z" />
<glyph unicode="&#xdc;" horiz-adv-x="1445" d="M51 1104q0 86 54.5 172t144.5 142.5t192 56.5q109 0 160 -66t51 -182q0 -102 -31.5 -227.5t-97.5 -333.5q-61 -199 -92 -319t-31 -214q0 -102 42 -165.5t130 -63.5q104 0 190.5 87t145 214t88.5 254q111 455 198 735.5t159 280.5q16 0 44.5 -17.5t57.5 -48.5 q-37 -25 -131 -284t-170 -560t-76 -479q0 -137 37 -188.5t127 -51.5q-72 -49 -135 -49q-74 0 -120 63.5t-46 153.5q0 63 19 187q-174 -379 -443 -379q-127 0 -196.5 77.5t-69.5 200.5q0 84 29.5 204t91.5 325q68 227 101.5 364t33.5 244q0 180 -115 180q-70 0 -119 -57 t-73.5 -140t-24.5 -157q0 -61 17 -100q-74 0 -108 38.5t-34 102.5zM761 1647q0 37 44.5 66.5t91.5 29.5q61 0 61 -57q0 -35 -38 -67.5t-83 -32.5q-33 0 -54.5 15t-21.5 46zM1056 1604q0 37 44 66.5t92 29.5q61 0 61 -57q0 -35 -38 -67.5t-83 -32.5q-33 0 -54.5 15t-21.5 46z " />
<glyph unicode="&#xdd;" horiz-adv-x="1363" d="M47 1104q0 86 54.5 172t144.5 142.5t192 56.5q109 0 161 -61.5t52 -145.5q0 -47 -14 -109.5t-45 -173.5q-39 -139 -58.5 -229t-19.5 -168q0 -197 143 -197q129 0 240 147.5t195 362.5q63 260 123.5 417t121.5 157q20 0 53 -18.5t62 -47.5q-74 -117 -116 -217t-86 -260 t-136 -535q-59 -238 -118.5 -395.5t-175 -271t-298.5 -113.5q-123 0 -202.5 51t-79.5 142q0 113 122 153q-16 -55 -16 -110q0 -86 45 -135.5t133 -49.5q180 0 279.5 177.5t148.5 402.5q6 27 33 162q10 51 23.5 115.5t29.5 142.5q-88 -170 -196.5 -264.5t-247.5 -94.5 q-117 0 -170 64.5t-53 179.5q0 74 18.5 162t54.5 215q35 125 50.5 196.5t15.5 130.5q0 72 -27.5 116t-89.5 44q-70 0 -120 -57t-75.5 -140t-25.5 -157q0 -61 16 -100q-74 0 -107.5 38.5t-33.5 102.5zM926 1586q0 25 38 87t88 111t87 49q39 0 45 -63q-152 -131 -229 -238 q-15 6 -22 23.5t-7 30.5z" />
<glyph unicode="&#xde;" horiz-adv-x="1040" d="M63 -76q0 27 13.5 67t15.5 46q111 344 197 598t186 502q-76 -12 -131 -35t-129 -60q-35 -23 -47 -22q-14 0 -39 20.5t-25 34.5q225 96 390 109l24 61q39 106 74 163.5t84 57.5q27 0 53 -16q-57 -113 -115 -264q119 -10 226.5 -59.5t175 -134.5t67.5 -199 q0 -180 -133 -283.5t-299 -143.5t-307 -47l-61 -217q-35 -131 -78 -280q-55 0 -98.5 29.5t-43.5 72.5zM354 358q154 19 288 75t219 156.5t85 237.5q0 152 -99 231t-249 85q-98 -268 -244 -785z" />
<glyph unicode="&#xdf;" horiz-adv-x="874" d="M-88 -236q22 31 40.5 125.5t51.5 303.5q57 371 114.5 628.5t170 455.5t284.5 198q94 0 154.5 -60.5t60.5 -165.5q0 -139 -95 -260t-222 -203q-25 -14 -25 -26q0 -10 27 -23q74 -33 135.5 -106.5t96 -163.5t34.5 -166q0 -106 -57 -219t-147.5 -186.5t-180.5 -73.5 q-68 0 -105.5 80t-37.5 188q0 98 34 171t91 73q23 0 33 -2q-31 -16 -52.5 -106.5t-21.5 -186.5q0 -78 15.5 -127t45.5 -49q51 0 107.5 71.5t93.5 181t37 214.5q0 113 -44 218t-116 161q-41 31 -41 53q0 27 49 69q111 104 173.5 199.5t62.5 220.5q0 72 -27.5 120t-93.5 48 q-102 0 -173 -124t-113 -303t-93 -468q-43 -246 -74.5 -388t-79 -246.5t-112.5 -125.5z" />
<glyph unicode="&#xe0;" horiz-adv-x="892" d="M-53 74q0 121 87 270.5t220 253.5t260 104q80 0 133 -43t53 -110q0 -47 -26.5 -67.5t-73.5 -20.5q10 37 10 71q0 51 -24.5 83t-75.5 32q-90 0 -189.5 -100.5t-166 -239.5t-66.5 -239q0 -80 55 -80q82 0 192.5 130t237.5 316q27 -4 54.5 -17.5t27.5 -33.5q0 -16 -19.5 -52 t-23.5 -42q-35 -59 -55 -105.5t-20 -85.5q0 -35 17 -62.5t52 -27.5q59 0 149.5 85t178.5 239l20 -21q-43 -109 -110.5 -193.5t-145 -131.5t-149.5 -47t-110 42t-38 101q0 27 7 59q-92 -123 -165 -180t-145 -57q-67 0 -109 44t-42 126zM436 1077q6 63 45 63q37 0 87 -49 t88 -111.5t38 -86.5q0 -12 -7 -29.5t-21 -24.5q-78 107 -230 238z" />
<glyph unicode="&#xe1;" horiz-adv-x="892" d="M-53 74q0 121 87 270.5t220 253.5t260 104q80 0 133 -43t53 -110q0 -47 -26.5 -67.5t-73.5 -20.5q10 37 10 71q0 51 -24.5 83t-75.5 32q-90 0 -189.5 -100.5t-166 -239.5t-66.5 -239q0 -80 55 -80q82 0 192.5 130t237.5 316q27 -4 54.5 -17.5t27.5 -33.5q0 -16 -19.5 -52 t-23.5 -42q-35 -59 -55 -105.5t-20 -85.5q0 -35 17 -62.5t52 -27.5q59 0 149.5 85t178.5 239l20 -21q-43 -109 -110.5 -193.5t-145 -131.5t-149.5 -47t-110 42t-38 101q0 27 7 59q-92 -123 -165 -180t-145 -57q-67 0 -109 44t-42 126zM573 893q0 25 38 87t88.5 111t86.5 49 q39 0 45 -63q-152 -131 -229 -238q-14 7 -21.5 24t-7.5 30z" />
<glyph unicode="&#xe2;" horiz-adv-x="892" d="M-53 74q0 121 87 270.5t220 253.5t260 104q80 0 133 -43t53 -110q0 -47 -26.5 -67.5t-73.5 -20.5q10 37 10 71q0 51 -24.5 83t-75.5 32q-90 0 -189.5 -100.5t-166 -239.5t-66.5 -239q0 -80 55 -80q82 0 192.5 130t237.5 316q27 -4 54.5 -17.5t27.5 -33.5q0 -16 -19.5 -52 t-23.5 -42q-35 -59 -55 -105.5t-20 -85.5q0 -35 17 -62.5t52 -27.5q59 0 149.5 85t178.5 239l20 -21q-43 -109 -110.5 -193.5t-145 -131.5t-149.5 -47t-110 42t-38 101q0 27 7 59q-92 -123 -165 -180t-145 -57q-67 0 -109 44t-42 126zM418 934q0 37 45 78.5t102.5 71.5 t85.5 30q33 0 77 -39t76 -92t32 -97q0 -45 -35 -63q-27 53 -62 94t-90 94q-70 -25 -119 -51t-92 -65q-20 12 -20 39z" />
<glyph unicode="&#xe3;" horiz-adv-x="892" d="M-53 74q0 121 87 270.5t220 253.5t260 104q80 0 133 -43t53 -110q0 -47 -26.5 -67.5t-73.5 -20.5q10 37 10 71q0 51 -24.5 83t-75.5 32q-90 0 -189.5 -100.5t-166 -239.5t-66.5 -239q0 -80 55 -80q82 0 192.5 130t237.5 316q27 -4 54.5 -17.5t27.5 -33.5q0 -16 -19.5 -52 t-23.5 -42q-35 -59 -55 -105.5t-20 -85.5q0 -35 17 -62.5t52 -27.5q59 0 149.5 85t178.5 239l20 -21q-43 -109 -110.5 -193.5t-145 -131.5t-149.5 -47t-110 42t-38 101q0 27 7 59q-92 -123 -165 -180t-145 -57q-67 0 -109 44t-42 126zM328 886q74 102 178 103 q37 0 75.5 -11.5t92.5 -33.5q80 -29 125 -41t96 -12q33 0 70 16q-68 -84 -168 -84q-37 0 -75 11.5t-95 33.5q-59 25 -102.5 37t-86.5 12q-63 0 -110 -31z" />
<glyph unicode="&#xe4;" horiz-adv-x="892" d="M-53 74q0 121 87 270.5t220 253.5t260 104q80 0 133 -43t53 -110q0 -47 -26.5 -67.5t-73.5 -20.5q10 37 10 71q0 51 -24.5 83t-75.5 32q-90 0 -189.5 -100.5t-166 -239.5t-66.5 -239q0 -80 55 -80q82 0 192.5 130t237.5 316q27 -4 54.5 -17.5t27.5 -33.5q0 -16 -19.5 -52 t-23.5 -42q-35 -59 -55 -105.5t-20 -85.5q0 -35 17 -62.5t52 -27.5q59 0 149.5 85t178.5 239l20 -21q-43 -109 -110.5 -193.5t-145 -131.5t-149.5 -47t-110 42t-38 101q0 27 7 59q-92 -123 -165 -180t-145 -57q-67 0 -109 44t-42 126zM377 954q0 37 44 66.5t91 29.5 q61 0 61 -57q0 -35 -37.5 -67.5t-82.5 -32.5q-33 0 -54.5 15t-21.5 46zM672 911q0 37 44 66.5t91 29.5q61 0 61 -57q0 -35 -37.5 -67.5t-83.5 -32.5q-32 0 -53.5 15t-21.5 46z" />
<glyph unicode="&#xe5;" horiz-adv-x="892" d="M-53 74q0 121 87 270.5t220 253.5t260 104q80 0 133 -43t53 -110q0 -47 -26.5 -67.5t-73.5 -20.5q10 37 10 71q0 51 -24.5 83t-75.5 32q-90 0 -189.5 -100.5t-166 -239.5t-66.5 -239q0 -80 55 -80q82 0 192.5 130t237.5 316q27 -4 54.5 -17.5t27.5 -33.5q0 -16 -19.5 -52 t-23.5 -42q-35 -59 -55 -105.5t-20 -85.5q0 -35 17 -62.5t52 -27.5q59 0 149.5 85t178.5 239l20 -21q-43 -109 -110.5 -193.5t-145 -131.5t-149.5 -47t-110 42t-38 101q0 27 7 59q-92 -123 -165 -180t-145 -57q-67 0 -109 44t-42 126zM463 923q0 49 33.5 103.5t92 90.5 t124.5 36q80 0 117.5 -31t37.5 -80t-35.5 -103.5t-96 -90t-126.5 -35.5q-76 0 -111.5 30.5t-35.5 79.5zM543 938q0 -31 22.5 -57.5t63.5 -26.5q39 0 76.5 28.5t62.5 70.5t25 77q0 31 -24 53.5t-67 22.5q-39 0 -75.5 -27t-60 -65.5t-23.5 -75.5z" />
<glyph unicode="&#xe6;" horiz-adv-x="1112" d="M-53 74q0 121 87 270.5t220 253.5t260 104q111 0 141 -86q137 121 269 121q127 0 127 -125q0 -100 -76 -187t-194.5 -142.5t-237.5 -67.5q-8 -35 -8 -74q0 -74 36.5 -123t124.5 -49q125 0 252 104.5t207 258.5l25 -19q-82 -182 -227.5 -292.5t-299.5 -110.5 q-117 0 -181 62.5t-69 162.5q-90 -119 -161.5 -175t-143.5 -56q-67 0 -109 44t-42 126zM88 68q0 -80 55 -80q97 0 265 215q14 90 67 188t131 178q-18 78 -96 78q-90 0 -189.5 -100.5t-166 -239.5t-66.5 -239zM553 254q86 31 180 86t161 130t67 157q0 25 -9.5 36t-33.5 11 q-63 0 -138 -63.5t-137.5 -162t-89.5 -194.5z" />
<glyph unicode="&#xe7;" horiz-adv-x="661" d="M-10 147q0 133 67.5 260.5t173 206t207.5 78.5q78 0 112 -44t34 -107q0 -61 -28 -105.5t-75 -44.5q-35 0 -59 31q31 14 53.5 64.5t22.5 97.5q0 27 -10.5 39t-34.5 12q-70 0 -149 -83t-133 -202t-54 -217q0 -74 34.5 -122t114.5 -48q125 0 247 102.5t187 268.5l27 -21 q-74 -190 -223 -315l-109 -164q31 23 62.5 36t74.5 13q93 0 93 -86q0 -57 -34 -110.5t-89.5 -86t-116.5 -32.5q-57 0 -91 21.5t-34 52.5q0 35 45 67q10 -47 33.5 -69.5t52.5 -22.5q37 0 77 28.5t66.5 71.5t26.5 78q0 18 -8 34.5t-27 16.5q-23 0 -49 -14t-69 -41 q-8 -4 -28 -16.5t-28 -12.5q-12 0 -20 12.5t-8 24.5q0 4 33.5 53.5t72.5 96.5q-104 -63 -211 -64q-102 0 -165.5 67.5t-63.5 194.5z" />
<glyph unicode="&#xe8;" horiz-adv-x="681" d="M-29 147q0 121 80 260.5t202 234.5t239 95q127 0 126 -125q0 -100 -75.5 -187t-194.5 -142.5t-237 -67.5q-8 -35 -9 -74q0 -74 37 -123t125 -49q125 0 252 104.5t207 258.5l25 -19q-82 -182 -227.5 -292.5t-299.5 -110.5q-121 0 -185.5 66.5t-64.5 170.5zM121 254 q86 31 180 86t160.5 130t66.5 157q0 25 -9 36t-34 11q-63 0 -138 -63.5t-137.5 -162t-88.5 -194.5zM373 1094q6 63 45 63q37 0 87 -49t88 -111.5t38 -86.5q0 -12 -7 -29.5t-21 -24.5q-78 107 -230 238z" />
<glyph unicode="&#xe9;" horiz-adv-x="681" d="M-29 147q0 121 80 260.5t202 234.5t239 95q127 0 126 -125q0 -100 -75.5 -187t-194.5 -142.5t-237 -67.5q-8 -35 -9 -74q0 -74 37 -123t125 -49q125 0 252 104.5t207 258.5l25 -19q-82 -182 -227.5 -292.5t-299.5 -110.5q-121 0 -185.5 66.5t-64.5 170.5zM121 254 q86 31 180 86t160.5 130t66.5 157q0 25 -9 36t-34 11q-63 0 -138 -63.5t-137.5 -162t-88.5 -194.5zM510 910q0 25 38 87t88.5 111t86.5 49q39 0 45 -63q-152 -131 -229 -238q-14 7 -21.5 24t-7.5 30z" />
<glyph unicode="&#xea;" horiz-adv-x="681" d="M-29 147q0 121 80 260.5t202 234.5t239 95q127 0 126 -125q0 -100 -75.5 -187t-194.5 -142.5t-237 -67.5q-8 -35 -9 -74q0 -74 37 -123t125 -49q125 0 252 104.5t207 258.5l25 -19q-82 -182 -227.5 -292.5t-299.5 -110.5q-121 0 -185.5 66.5t-64.5 170.5zM121 254 q86 31 180 86t160.5 130t66.5 157q0 25 -9 36t-34 11q-63 0 -138 -63.5t-137.5 -162t-88.5 -194.5zM355 951q0 37 45 78.5t102.5 71.5t85.5 30q33 0 77 -39t76 -92t32 -97q0 -45 -35 -63q-27 53 -62 94t-90 94q-70 -25 -119 -51t-92 -65q-20 12 -20 39z" />
<glyph unicode="&#xeb;" horiz-adv-x="681" d="M-29 147q0 121 80 260.5t202 234.5t239 95q127 0 126 -125q0 -100 -75.5 -187t-194.5 -142.5t-237 -67.5q-8 -35 -9 -74q0 -74 37 -123t125 -49q125 0 252 104.5t207 258.5l25 -19q-82 -182 -227.5 -292.5t-299.5 -110.5q-121 0 -185.5 66.5t-64.5 170.5zM121 254 q86 31 180 86t160.5 130t66.5 157q0 25 -9 36t-34 11q-63 0 -138 -63.5t-137.5 -162t-88.5 -194.5zM314 971q0 37 44 66.5t91 29.5q61 0 61 -57q0 -35 -37.5 -67.5t-82.5 -32.5q-33 0 -54.5 15t-21.5 46zM609 928q0 37 44 66.5t91 29.5q61 0 61 -57q0 -35 -37.5 -67.5 t-83.5 -32.5q-32 0 -53.5 15t-21.5 46z" />
<glyph unicode="&#xec;" horiz-adv-x="493" d="M-10 119q0 80 46 221t114.5 247.5t134.5 106.5q18 0 31.5 -12t13.5 -33q0 -29 -66 -137q-68 -113 -107.5 -202t-39.5 -169q0 -72 23.5 -97.5t76.5 -25.5q160 0 315 314l19 -21q-57 -172 -169 -268t-235 -96q-75 0 -116 48t-41 124zM184 1079q6 63 45 63q37 0 87 -49 t88 -111.5t38 -86.5q0 -12 -7 -29.5t-21 -24.5q-78 107 -230 238z" />
<glyph unicode="&#xed;" horiz-adv-x="493" d="M-10 119q0 80 46 221t114.5 247.5t134.5 106.5q18 0 31.5 -12t13.5 -33q0 -29 -66 -137q-68 -113 -107.5 -202t-39.5 -169q0 -72 23.5 -97.5t76.5 -25.5q160 0 315 314l19 -21q-57 -172 -169 -268t-235 -96q-75 0 -116 48t-41 124zM335 895q0 25 38 87t88.5 111t86.5 49 q39 0 45 -63q-152 -131 -229 -238q-14 7 -21.5 24t-7.5 30z" />
<glyph unicode="&#xee;" horiz-adv-x="491" d="M-10 119q0 80 46 221t114.5 247.5t134.5 106.5q18 0 31.5 -12t13.5 -33q0 -29 -66 -137q-68 -113 -107.5 -202t-39.5 -169q0 -72 23.5 -97.5t76.5 -25.5q160 0 315 314l19 -21q-57 -172 -169 -268t-235 -96q-75 0 -116 48t-41 124zM203 936q0 37 45 78.5t102.5 71.5 t85.5 30q33 0 77 -39t76 -92t32 -97q0 -45 -35 -63q-27 53 -62 94t-90 94q-70 -25 -119 -51t-92 -65q-20 12 -20 39z" />
<glyph unicode="&#xef;" horiz-adv-x="495" d="M-10 119q0 80 46 221t114.5 247.5t134.5 106.5q18 0 31.5 -12t13.5 -33q0 -29 -66 -137q-68 -113 -107.5 -202t-39.5 -169q0 -72 23.5 -97.5t76.5 -25.5q160 0 315 314l19 -21q-57 -172 -169 -268t-235 -96q-75 0 -116 48t-41 124zM123 956q0 37 44 66.5t91 29.5 q61 0 61 -57q0 -35 -37.5 -67.5t-82.5 -32.5q-33 0 -54.5 15t-21.5 46zM418 913q0 37 44 66.5t91 29.5q61 0 61 -57q0 -35 -37.5 -67.5t-83.5 -32.5q-32 0 -53.5 15t-21.5 46z" />
<glyph unicode="&#xf0;" horiz-adv-x="968" d="M-33 111q0 113 86 263t215 256.5t250 106.5q90 0 90 -63q0 -8 -4 -29q-20 31 -78 31q-102 0 -198.5 -97.5t-156.5 -228.5t-60 -215q0 -45 19.5 -71.5t53.5 -26.5q59 0 141.5 76.5t164 207t139.5 279.5q92 240 92 401q0 47 -8 89q-53 -8 -124 -21.5t-112 -26.5 q0 55 55.5 78t165.5 39q-43 156 -178 275q31 39 80 39q86 0 149.5 -86.5t94.5 -210.5q51 4 107.5 10t78.5 14q-31 -49 -63.5 -64.5t-110.5 -25.5q8 -47 8 -96q0 -96 -31.5 -210t-91.5 -284q-53 -150 -79.5 -241t-26.5 -162q0 -43 13.5 -65.5t43.5 -22.5q43 0 101.5 37.5 t116 106.5t98.5 159l24 -19q-39 -102 -106.5 -186t-144 -132t-146.5 -48t-102.5 45t-32.5 108q0 70 39 219q-104 -172 -216 -276t-202 -104q-60 0 -107 44t-47 128z" />
<glyph unicode="&#xf1;" horiz-adv-x="954" d="M-78 14q0 10 27 74q51 131 84 238.5t35 191.5q14 16 40.5 29.5t53.5 13.5q55 0 55 -53q0 -31 -18.5 -107.5t-46.5 -162.5q98 152 208.5 256t217.5 104q76 0 113.5 -54.5t37.5 -129.5q0 -45 -11 -86t-34 -95q-18 -45 -28.5 -77.5t-10.5 -65.5q0 -78 62 -78 q70 0 144.5 92.5t141.5 227.5l23 -27q-147 -346 -354 -346q-70 0 -107 36t-37 95q0 27 9.5 62.5t19.5 70.5q12 37 21.5 78t9.5 74q0 100 -82 100q-78 0 -163 -82t-151.5 -182t-150.5 -242q-35 0 -63.5 11.5t-45.5 33.5zM256 792q74 102 178 103q37 0 75.5 -11.5t92.5 -33.5 q80 -29 125 -41t96 -12q33 0 70 16q-68 -84 -168 -84q-37 0 -75 11.5t-95 33.5q-59 25 -102.5 37t-86.5 12q-63 0 -110 -31z" />
<glyph unicode="&#xf2;" horiz-adv-x="747" d="M-20 121q0 84 34.5 176t90 153.5t110.5 61.5q18 0 43 -10q-25 -20 -59.5 -90t-60 -149t-25.5 -128q0 -117 73 -117q43 0 102.5 45.5t117.5 118.5q-57 47 -89 123t-32 158q0 106 54 182t146 76q78 0 110 -42t32 -116q0 -78 -38 -175t-100 -189q37 -20 78 -21q59 0 123 36 t96 112l25 -21q-39 -90 -110.5 -133t-147.5 -43q-55 0 -98 21q-74 -96 -157 -156t-157 -60q-84 0 -122.5 51.5t-38.5 135.5zM373 457q0 -63 17.5 -122t51.5 -99q54 79 86.5 162t32.5 153q0 57 -17.5 86t-43.5 29q-29 0 -58.5 -28t-49 -76t-19.5 -105zM389 1106q6 63 45 63 q37 0 87 -49t88 -111.5t38 -86.5q0 -12 -7 -29.5t-21 -24.5q-78 107 -230 238z" />
<glyph unicode="&#xf3;" horiz-adv-x="747" d="M-20 121q0 84 34.5 176t90 153.5t110.5 61.5q18 0 43 -10q-25 -20 -59.5 -90t-60 -149t-25.5 -128q0 -117 73 -117q43 0 102.5 45.5t117.5 118.5q-57 47 -89 123t-32 158q0 106 54 182t146 76q78 0 110 -42t32 -116q0 -78 -38 -175t-100 -189q37 -20 78 -21q59 0 123 36 t96 112l25 -21q-39 -90 -110.5 -133t-147.5 -43q-55 0 -98 21q-74 -96 -157 -156t-157 -60q-84 0 -122.5 51.5t-38.5 135.5zM373 457q0 -63 17.5 -122t51.5 -99q54 79 86.5 162t32.5 153q0 57 -17.5 86t-43.5 29q-29 0 -58.5 -28t-49 -76t-19.5 -105zM526 922q0 25 38 87 t88.5 111t86.5 49q39 0 45 -63q-152 -131 -229 -238q-14 7 -21.5 24t-7.5 30z" />
<glyph unicode="&#xf4;" horiz-adv-x="747" d="M-20 121q0 84 34.5 176t90 153.5t110.5 61.5q18 0 43 -10q-25 -20 -59.5 -90t-60 -149t-25.5 -128q0 -117 73 -117q43 0 102.5 45.5t117.5 118.5q-57 47 -89 123t-32 158q0 106 54 182t146 76q78 0 110 -42t32 -116q0 -78 -38 -175t-100 -189q37 -20 78 -21q59 0 123 36 t96 112l25 -21q-39 -90 -110.5 -133t-147.5 -43q-55 0 -98 21q-74 -96 -157 -156t-157 -60q-84 0 -122.5 51.5t-38.5 135.5zM371 963q0 37 45 78.5t102.5 71.5t85.5 30q33 0 77 -39t76 -92t32 -97q0 -45 -35 -63q-27 53 -62 94t-90 94q-70 -25 -119 -51t-92 -65 q-20 12 -20 39zM373 457q0 -63 17.5 -122t51.5 -99q54 79 86.5 162t32.5 153q0 57 -17.5 86t-43.5 29q-29 0 -58.5 -28t-49 -76t-19.5 -105z" />
<glyph unicode="&#xf5;" horiz-adv-x="747" d="M-20 121q0 84 34.5 176t90 153.5t110.5 61.5q18 0 43 -10q-25 -20 -59.5 -90t-60 -149t-25.5 -128q0 -117 73 -117q43 0 102.5 45.5t117.5 118.5q-57 47 -89 123t-32 158q0 106 54 182t146 76q78 0 110 -42t32 -116q0 -78 -38 -175t-100 -189q37 -20 78 -21q59 0 123 36 t96 112l25 -21q-39 -90 -110.5 -133t-147.5 -43q-55 0 -98 21q-74 -96 -157 -156t-157 -60q-84 0 -122.5 51.5t-38.5 135.5zM281 915q74 102 178 103q37 0 75.5 -11.5t92.5 -33.5q80 -29 125 -41t96 -12q33 0 70 16q-68 -84 -168 -84q-37 0 -75 11.5t-95 33.5 q-59 25 -102.5 37t-86.5 12q-63 0 -110 -31zM373 457q0 -63 17.5 -122t51.5 -99q54 79 86.5 162t32.5 153q0 57 -17.5 86t-43.5 29q-29 0 -58.5 -28t-49 -76t-19.5 -105z" />
<glyph unicode="&#xf6;" horiz-adv-x="755" d="M-20 121q0 84 34.5 176t90 153.5t110.5 61.5q18 0 43 -10q-25 -20 -59.5 -90t-60 -149t-25.5 -128q0 -117 73 -117q43 0 102.5 45.5t117.5 118.5q-57 47 -89 123t-32 158q0 106 54 182t146 76q78 0 110 -42t32 -116q0 -78 -38 -175t-100 -189q37 -20 78 -21q59 0 123 36 t96 112l25 -21q-39 -90 -110.5 -133t-147.5 -43q-55 0 -98 21q-74 -96 -157 -156t-157 -60q-84 0 -122.5 51.5t-38.5 135.5zM328 952q0 37 44 66.5t91 29.5q61 0 61 -57q0 -35 -37.5 -67.5t-82.5 -32.5q-33 0 -54.5 15t-21.5 46zM373 457q0 -63 17.5 -122t51.5 -99 q54 79 86.5 162t32.5 153q0 57 -17.5 86t-43.5 29q-29 0 -58.5 -28t-49 -76t-19.5 -105zM623 909q0 37 44 66.5t91 29.5q61 0 61 -57q0 -35 -37.5 -67.5t-83.5 -32.5q-32 0 -53.5 15t-21.5 46z" />
<glyph unicode="&#xf7;" horiz-adv-x="942" d="M51 254q21 57 121 78.5t266 21.5t344 -18q-47 -33 -122.5 -46.5t-237.5 -13.5q-225 0 -371 -22zM285 35q0 33 38.5 58.5t79.5 25.5q53 0 54 -49q0 -31 -34 -60.5t-73 -29.5q-28 0 -46.5 14t-18.5 41zM408 547q0 33 38.5 58.5t79.5 25.5q53 0 54 -49q0 -31 -34 -60.5 t-73 -29.5q-29 0 -47 14t-18 41z" />
<glyph unicode="&#xf8;" horiz-adv-x="743" d="M-133 -129q57 31 145 125q-33 47 -32 125q0 84 34.5 176t90 153.5t110.5 61.5q18 0 43 -10q-25 -20 -59.5 -90t-60 -149t-25.5 -128v-22q82 98 176 229l10 14q-14 49 -14 107q0 106 54 182t146 76q29 0 52 -6q4 6 28 47q8 12 36 21.5t56 9.5l27 -2l-80 -125 q23 -37 23 -103q0 -78 -38 -175t-100 -189q37 -20 78 -21q59 0 123 36t96 112l25 -21q-39 -90 -110.5 -133t-147.5 -43q-55 0 -98 21q-74 -96 -157 -156t-157 -60q-43 0 -75 17q-98 -82 -172 -82q-18 0 -27 2zM150 29q16 -10 36 -11q43 0 102.5 45.5t117.5 118.5 q-41 35 -68 80q-94 -137 -188 -233zM373 463q74 113 131 203h-4q-29 0 -57.5 -27t-49 -74t-20.5 -102zM389 336q20 -61 53 -100q54 79 86.5 162t32.5 153q0 18 -4 43q-33 -53 -77 -119.5t-60 -91.5z" />
<glyph unicode="&#xf9;" horiz-adv-x="897" d="M0 145q0 76 31.5 187.5t76 194.5t72.5 83q12 0 36 -12t40 -29q-43 -68 -90 -193.5t-47 -217.5q0 -47 15.5 -92.5t58.5 -45.5q72 0 156.5 132.5t182.5 334.5l33 68q98 -18 99 -53q0 -4 -9.5 -27.5t-17.5 -42.5q-47 -104 -79 -195.5t-32 -154.5q0 -82 68 -82q45 0 106.5 40 t125 115.5t110.5 176.5l27 -19q-43 -109 -112 -193.5t-148.5 -132.5t-151.5 -48q-143 0 -143 151q0 41 14 103q-66 -117 -131.5 -185.5t-136.5 -68.5q-68 0 -111 60t-43 146zM293 995q6 63 45 63q37 0 87 -49t88 -111.5t38 -86.5q0 -12 -7 -29.5t-21 -24.5q-78 107 -230 238 z" />
<glyph unicode="&#xfa;" horiz-adv-x="897" d="M0 145q0 76 31.5 187.5t76 194.5t72.5 83q12 0 36 -12t40 -29q-43 -68 -90 -193.5t-47 -217.5q0 -47 15.5 -92.5t58.5 -45.5q72 0 156.5 132.5t182.5 334.5l33 68q98 -18 99 -53q0 -4 -9.5 -27.5t-17.5 -42.5q-47 -104 -79 -195.5t-32 -154.5q0 -82 68 -82q45 0 106.5 40 t125 115.5t110.5 176.5l27 -19q-43 -109 -112 -193.5t-148.5 -132.5t-151.5 -48q-143 0 -143 151q0 41 14 103q-66 -117 -131.5 -185.5t-136.5 -68.5q-68 0 -111 60t-43 146zM430 811q0 25 38 87t88.5 111t86.5 49q39 0 45 -63q-152 -131 -229 -238q-14 7 -21.5 24t-7.5 30z " />
<glyph unicode="&#xfb;" horiz-adv-x="897" d="M0 145q0 76 31.5 187.5t76 194.5t72.5 83q12 0 36 -12t40 -29q-43 -68 -90 -193.5t-47 -217.5q0 -47 15.5 -92.5t58.5 -45.5q72 0 156.5 132.5t182.5 334.5l33 68q98 -18 99 -53q0 -4 -9.5 -27.5t-17.5 -42.5q-47 -104 -79 -195.5t-32 -154.5q0 -82 68 -82q45 0 106.5 40 t125 115.5t110.5 176.5l27 -19q-43 -109 -112 -193.5t-148.5 -132.5t-151.5 -48q-143 0 -143 151q0 41 14 103q-66 -117 -131.5 -185.5t-136.5 -68.5q-68 0 -111 60t-43 146zM275 852q0 37 45 78.5t102.5 71.5t85.5 30q33 0 77 -39t76 -92t32 -97q0 -45 -35 -63 q-27 53 -62 94t-90 94q-70 -25 -119 -51t-92 -65q-20 12 -20 39z" />
<glyph unicode="&#xfc;" horiz-adv-x="897" d="M0 145q0 76 31.5 187.5t76 194.5t72.5 83q12 0 36 -12t40 -29q-43 -68 -90 -193.5t-47 -217.5q0 -47 15.5 -92.5t58.5 -45.5q72 0 156.5 132.5t182.5 334.5l33 68q98 -18 99 -53q0 -4 -9.5 -27.5t-17.5 -42.5q-47 -104 -79 -195.5t-32 -154.5q0 -82 68 -82q45 0 106.5 40 t125 115.5t110.5 176.5l27 -19q-43 -109 -112 -193.5t-148.5 -132.5t-151.5 -48q-143 0 -143 151q0 41 14 103q-66 -117 -131.5 -185.5t-136.5 -68.5q-68 0 -111 60t-43 146zM234 872q0 37 44 66.5t91 29.5q61 0 61 -57q0 -35 -37.5 -67.5t-82.5 -32.5q-33 0 -54.5 15 t-21.5 46zM529 829q0 37 44 66.5t91 29.5q61 0 61 -57q0 -35 -37.5 -67.5t-83.5 -32.5q-32 0 -53.5 15t-21.5 46z" />
<glyph unicode="&#xfd;" horiz-adv-x="796" d="M-41 -465q0 82 52 144.5t128 108.5t217 118q61 158 115 375q-74 -121 -147.5 -191t-151.5 -70q-66 0 -115 43t-49 123q0 74 33 180.5t76 186.5t71 80q18 0 54.5 -15.5t36.5 -31.5q-41 -59 -88.5 -191.5t-47.5 -210.5q0 -82 74 -82q55 0 130 76t142 187q10 35 21 94 q8 39 33.5 71.5t70.5 32.5q18 0 43 -6q0 -55 -46 -227t-113 -346q102 41 192 128t146 220l26 -21q-76 -240 -387 -383q-90 -221 -189.5 -361t-197.5 -140q-55 0 -92 28.5t-37 79.5zM23 -446q0 -20 14 -41t41 -21q22 0 63 38t92.5 120t102.5 207q-109 -57 -171.5 -97.5 t-102 -91.5t-39.5 -114zM432 834q0 25 38 87t88.5 111t86.5 49q39 0 45 -63q-152 -131 -229 -238q-14 7 -21.5 24t-7.5 30z" />
<glyph unicode="&#xfe;" horiz-adv-x="800" d="M-193 -496l37 127q96 330 163 630t124 775q2 20 9 27.5t30 7.5q49 0 73.5 -27.5t24.5 -66.5q0 -31 -35.5 -259.5t-56.5 -324.5q63 123 154.5 212t199.5 89q90 0 148.5 -64.5t58.5 -168.5q0 -109 -63.5 -230.5t-175 -202.5t-244.5 -81q-51 0 -85 11t-34 26q0 6 15.5 8 t35.5 2q106 0 202.5 67.5t156 172t59.5 208.5q0 70 -29.5 114t-87.5 44q-66 0 -134 -54t-122.5 -131t-83.5 -145q-76 -324 -146.5 -562t-104.5 -271q-10 -10 -25 -10q-16 0 -30.5 16t-25 36.5t-8.5 24.5z" />
<glyph unicode="&#xff;" horiz-adv-x="796" d="M-41 -465q0 82 52 144.5t128 108.5t217 118q61 158 115 375q-74 -121 -147.5 -191t-151.5 -70q-66 0 -115 43t-49 123q0 74 33 180.5t76 186.5t71 80q18 0 54.5 -15.5t36.5 -31.5q-41 -59 -88.5 -191.5t-47.5 -210.5q0 -82 74 -82q55 0 130 76t142 187q10 35 21 94 q8 39 33.5 71.5t70.5 32.5q18 0 43 -6q0 -55 -46 -227t-113 -346q102 41 192 128t146 220l26 -21q-76 -240 -387 -383q-90 -221 -189.5 -361t-197.5 -140q-55 0 -92 28.5t-37 79.5zM23 -446q0 -20 14 -41t41 -21q22 0 63 38t92.5 120t102.5 207q-109 -57 -171.5 -97.5 t-102 -91.5t-39.5 -114zM236 895q0 37 44 66.5t91 29.5q61 0 61 -57q0 -35 -37.5 -67.5t-82.5 -32.5q-33 0 -54.5 15t-21.5 46zM531 852q0 37 44 66.5t91 29.5q61 0 61 -57q0 -35 -37.5 -67.5t-83.5 -32.5q-32 0 -53.5 15t-21.5 46z" />
<glyph unicode="&#x152;" horiz-adv-x="1636" d="M43 330q0 256 130 524t328.5 443.5t389.5 175.5q78 0 123 -25h-23q-170 0 -350 -181.5t-299 -451.5t-119 -514q0 -178 68.5 -294t206.5 -116q158 0 294 179.5t218 448.5t82 515q0 260 -62 260q-76 0 -244 -415q-49 12 -73.5 38.5t-24.5 61.5q0 70 64.5 164t153.5 161.5 t157 67.5q135 8 233 8q293 0 398 -34q-16 -43 -109.5 -58.5t-238.5 -15.5q-35 0 -89 4l-75 2q8 -23 15 -72t7 -88q0 -88 -9 -200.5t-17 -169.5q279 0 415 -21q-16 -47 -88.5 -73.5t-195.5 -26.5q-74 0 -152 4q-47 -215 -85 -339t-97.5 -221.5t-153.5 -156.5q106 -4 342 -4 l109 4q94 4 135 4q33 0 41 -2q-18 -47 -203.5 -71.5t-406.5 -24.5l-355 2q-203 0 -321.5 128t-118.5 380z" />
<glyph unicode="&#x153;" horiz-adv-x="1112" d="M-53 74q0 121 87 270.5t220 253.5t260 104q111 0 141 -86q137 121 269 121q127 0 127 -125q0 -100 -76 -187t-194.5 -142.5t-237.5 -67.5q-8 -35 -8 -74q0 -74 36.5 -123t124.5 -49q125 0 252 104.5t207 258.5l25 -19q-82 -182 -227.5 -292.5t-299.5 -110.5 q-117 0 -181 62.5t-69 162.5q-90 -119 -161.5 -175t-143.5 -56q-67 0 -109 44t-42 126zM88 68q0 -80 55 -80q97 0 265 215l6 30q-66 23 -102 83.5t-36 132.5q0 31 7 57q-84 -96 -139.5 -222t-55.5 -216zM356 418q0 -82 72 -131q53 155 178 282q-18 78 -96 78 q-37 0 -73 -31.5t-58.5 -85t-22.5 -112.5zM553 254q86 31 180 86t161 130t67 157q0 25 -9.5 36t-33.5 11q-63 0 -138 -63.5t-137.5 -162t-89.5 -194.5z" />
<glyph unicode="&#x178;" horiz-adv-x="1363" d="M47 1104q0 86 54.5 172t144.5 142.5t192 56.5q109 0 161 -61.5t52 -145.5q0 -47 -14 -109.5t-45 -173.5q-39 -139 -58.5 -229t-19.5 -168q0 -197 143 -197q129 0 240 147.5t195 362.5q63 260 123.5 417t121.5 157q20 0 53 -18.5t62 -47.5q-74 -117 -116 -217t-86 -260 t-136 -535q-59 -238 -118.5 -395.5t-175 -271t-298.5 -113.5q-123 0 -202.5 51t-79.5 142q0 113 122 153q-16 -55 -16 -110q0 -86 45 -135.5t133 -49.5q180 0 279.5 177.5t148.5 402.5q6 27 33 162q10 51 23.5 115.5t29.5 142.5q-88 -170 -196.5 -264.5t-247.5 -94.5 q-117 0 -170 64.5t-53 179.5q0 74 18.5 162t54.5 215q35 125 50.5 196.5t15.5 130.5q0 72 -27.5 116t-89.5 44q-70 0 -120 -57t-75.5 -140t-25.5 -157q0 -61 16 -100q-74 0 -107.5 38.5t-33.5 102.5zM735 1647q0 37 44.5 66.5t91.5 29.5q61 0 61 -57q0 -35 -38 -67.5 t-83 -32.5q-33 0 -54.5 15t-21.5 46zM1030 1604q0 37 44 66.5t92 29.5q61 0 61 -57q0 -35 -38 -67.5t-83 -32.5q-33 0 -54.5 15t-21.5 46z" />
<glyph unicode="&#x2c6;" horiz-adv-x="415" d="M0 922q0 37 45 78.5t102.5 71.5t85.5 30q33 0 77 -39t76 -92t32 -97q0 -45 -35 -63q-27 53 -62 94t-90 94q-70 -25 -119 -51t-92 -65q-20 12 -20 39z" />
<glyph unicode="&#x2dc;" horiz-adv-x="634" d="M0 874q74 102 178 103q37 0 75.5 -11.5t92.5 -33.5q80 -29 125 -41t96 -12q33 0 70 16q-68 -84 -168 -84q-37 0 -75 11.5t-95 33.5q-59 25 -102.5 37t-86.5 12q-63 0 -110 -31z" />
<glyph unicode="&#x2000;" horiz-adv-x="942" />
<glyph unicode="&#x2001;" horiz-adv-x="1885" />
<glyph unicode="&#x2002;" horiz-adv-x="942" />
<glyph unicode="&#x2003;" horiz-adv-x="1885" />
<glyph unicode="&#x2004;" horiz-adv-x="628" />
<glyph unicode="&#x2005;" horiz-adv-x="471" />
<glyph unicode="&#x2006;" horiz-adv-x="314" />
<glyph unicode="&#x2007;" horiz-adv-x="314" />
<glyph unicode="&#x2008;" horiz-adv-x="235" />
<glyph unicode="&#x2009;" horiz-adv-x="377" />
<glyph unicode="&#x200a;" horiz-adv-x="104" />
<glyph unicode="&#x2010;" horiz-adv-x="991" d="M74 295q20 57 120.5 78.5t266.5 21.5t344 -18q-82 -59 -211 -60h-195q-109 0 -171 -4t-154 -18z" />
<glyph unicode="&#x2011;" horiz-adv-x="991" d="M74 295q20 57 120.5 78.5t266.5 21.5t344 -18q-82 -59 -211 -60h-195q-109 0 -171 -4t-154 -18z" />
<glyph unicode="&#x2012;" horiz-adv-x="991" d="M74 295q20 57 120.5 78.5t266.5 21.5t344 -18q-82 -59 -211 -60h-195q-109 0 -171 -4t-154 -18z" />
<glyph unicode="&#x2013;" horiz-adv-x="1386" d="M51 233q8 97 156.5 132.5t421.5 35.5q186 0 379 -20q152 -16 249 -16q-106 -92 -268 -93q-199 0 -274 -2q-305 0 -400.5 -5t-263.5 -32z" />
<glyph unicode="&#x2014;" horiz-adv-x="1716" d="M72 233q10 97 195.5 132.5t525.5 35.5q236 0 473 -20q193 -16 313 -16q-133 -92 -334 -93q-248 0 -344 -2q-381 0 -499.5 -5t-329.5 -32z" />
<glyph unicode="&#x2018;" horiz-adv-x="294" d="M258 1417q0 23 15.5 40.5t35.5 17.5q6 -31 31 -68t31 -45q6 -10 27.5 -43t35.5 -64q4 -12 4 -18q0 -35 -39 -57q-12 18 -24.5 34.5t-22.5 32.5q-47 68 -70.5 106t-23.5 64z" />
<glyph unicode="&#x2019;" horiz-adv-x="256" d="M254 1237q0 6 4 18q14 31 35.5 64t28.5 43q6 8 30.5 45t30.5 68q20 0 35.5 -17.5t15.5 -40.5q0 -27 -23.5 -64.5t-70.5 -105.5q-10 -16 -22.5 -32.5t-24.5 -34.5q-39 22 -39 57z" />
<glyph unicode="&#x201a;" horiz-adv-x="401" d="M-20 -104q0 68 40.5 143.5t83.5 75.5q20 0 36 -17.5t16 -40.5q-43 -45 -70 -91t-45 -88t-27 -58q-34 21 -34 76z" />
<glyph unicode="&#x201c;" horiz-adv-x="520" d="M258 1417q0 23 15.5 40.5t35.5 17.5q6 -31 31 -68t31 -45q6 -10 27.5 -43t35.5 -64q4 -12 4 -18q0 -35 -39 -57q-12 18 -24.5 34.5t-22.5 32.5q-47 68 -70.5 106t-23.5 64zM483 1417q0 23 15.5 40.5t36.5 17.5q6 -31 30.5 -68t30.5 -45q6 -10 27.5 -43t35.5 -64 q4 -12 5 -18q0 -35 -39 -57q-13 18 -25 34.5t-22 32.5q-47 68 -71 106t-24 64z" />
<glyph unicode="&#x201d;" horiz-adv-x="481" d="M254 1237q0 6 4 18q14 31 35.5 64t28.5 43q6 8 30.5 45t30.5 68q20 0 35.5 -17.5t15.5 -40.5q0 -27 -23.5 -64.5t-70.5 -105.5q-10 -16 -22.5 -32.5t-24.5 -34.5q-39 22 -39 57zM479 1237q0 6 4 18q14 31 36 64t28 43q6 8 30.5 45t30.5 68q20 0 35.5 -17.5t15.5 -40.5 q0 -27 -23.5 -64.5t-70.5 -105.5q-10 -16 -22.5 -32.5t-24.5 -34.5q-39 22 -39 57z" />
<glyph unicode="&#x201e;" horiz-adv-x="626" d="M-20 -104q0 68 40.5 143.5t83.5 75.5q20 0 36 -17.5t16 -40.5q-43 -45 -70 -91t-45 -88t-27 -58q-34 21 -34 76zM205 -104q0 68 41 143.5t84 75.5q20 0 35.5 -17.5t15.5 -40.5q-43 -45 -69.5 -91t-45 -88t-26.5 -58q-35 21 -35 76z" />
<glyph unicode="&#x2022;" horiz-adv-x="495" d="M82 319q0 49 45 94.5t98 45.5q37 0 68 -26.5t31 -63.5q0 -43 -47.5 -85t-102.5 -42q-39 0 -65.5 19.5t-26.5 57.5z" />
<glyph unicode="&#x2026;" horiz-adv-x="1077" d="M16 35q0 33 39 58.5t80 25.5q53 0 53 -49q0 -31 -33.5 -60.5t-72.5 -29.5q-29 0 -47.5 14t-18.5 41zM336 35q0 33 39 58.5t80 25.5q53 0 53 -49q0 -31 -34 -60.5t-73 -29.5q-28 0 -46.5 14t-18.5 41zM655 35q0 33 39 58.5t80 25.5q53 0 53 -49q0 -31 -33.5 -60.5 t-72.5 -29.5q-29 0 -47.5 14t-18.5 41z" />
<glyph unicode="&#x202f;" horiz-adv-x="377" />
<glyph unicode="&#x2039;" horiz-adv-x="583" d="M12 324q100 43 212 137t177 186q4 -8 7.5 -20.5t3.5 -24.5q0 -74 -100.5 -149.5t-245.5 -151.5q82 -59 143 -94t188 -84q-29 -33 -59 -33q-47 0 -121 41t-134 97.5t-71 95.5z" />
<glyph unicode="&#x203a;" horiz-adv-x="622" d="M104 602q0 12 3.5 24.5t7.5 20.5q66 -92 177 -186t212 -137q-10 -39 -70.5 -95.5t-134.5 -97.5t-121 -41q-30 0 -59 33q127 49 188.5 84t143.5 94q-145 76 -246 151.5t-101 149.5z" />
<glyph unicode="&#x205f;" horiz-adv-x="471" />
<glyph unicode="&#x20ac;" horiz-adv-x="1406" d="M37 317q6 125 225 140q4 31 17 92l-132 -17l-69 -10q2 68 63.5 100.5t165.5 41.5q66 213 195 399t286.5 298t307.5 112q88 0 138 -43.5t50 -133.5q0 -80 -37 -184t-92 -178t-108 -74q-41 0 -64 47q76 86 147.5 209t71.5 203q0 43 -24.5 67.5t-75.5 24.5 q-106 0 -226 -106.5t-224.5 -279.5t-166.5 -363q72 -4 172 -17q131 -12 172 -14q-23 -33 -54.5 -46.5t-95 -17.5t-224.5 -8q-6 -27 -21 -100q98 -6 180 -19q129 -12 174 -14q-23 -33 -54.5 -46t-93.5 -17.5t-220 -6.5q-2 -25 -2 -69q0 -168 71.5 -282t217.5 -114 q104 0 212.5 60.5t198.5 161t146 219.5l28 -21q-111 -217 -275.5 -353t-359.5 -136q-137 0 -228 69.5t-133 183t-42 247.5v24q-51 -4 -148 -18z" />
<glyph unicode="&#x2122;" horiz-adv-x="1140" d="M289 1393q2 45 101 59t294 14h158q47 0 68.5 -38.5t21.5 -147.5q0 -63 -8 -170q-6 -57 -6 -88q31 51 83 170q57 129 98.5 196.5t80.5 67.5q10 0 28 -6l6 -6q-29 -70 -70.5 -269.5t-41.5 -300.5q0 -29 6 -47l8 -24q-49 0 -66.5 20.5t-17.5 73.5q0 80 17.5 176t50.5 219 q-45 -76 -99.5 -197.5t-91.5 -213.5q-8 -8 -18 -9q-25 0 -34 25t-9 78q0 78 6 172q2 37 4 81t2 93v8q-102 -250 -146 -347t-74 -138t-62 -41l40 92l52 111q129 279 164 364q10 20 10 31q0 16 -21 16q-166 0 -256 -12q-59 -150 -113.5 -321t-54.5 -259q0 -10 4 -22 q-84 0 -84 61q0 43 62.5 220.5t130.5 318.5q-78 0 -121 -3t-92 -11z" />
<glyph unicode="&#x25fc;" horiz-adv-x="675" d="M0 0v676h676v-676h-676z" />
</font>
</defs>
</svg>
